<svg width="13" height="11" viewBox="0 0 13 11" fill="none" xmlns="http://www.w3.org/2000/svg">
<path d="M11.9258 4.58757H2.7521L5.77025 1.56943C5.85623 1.48415 5.92448 1.38268 5.97105 1.27089C6.01762 1.1591 6.0416 1.0392 6.0416 0.918095C6.0416 0.796992 6.01762 0.677086 5.97105 0.565297C5.92448 0.453507 5.85623 0.352045 5.77025 0.266764C5.59837 0.0959031 5.36586 0 5.1235 0C4.88115 0 4.64864 0.0959031 4.47676 0.266764L0.541247 4.21145C0.196695 4.55395 0.00204829 5.01912 0 5.50494C0.00446445 5.98757 0.198926 6.449 0.541247 6.78925L4.47676 10.7339C4.56229 10.8189 4.66372 10.8861 4.77524 10.9319C4.88677 10.9776 5.00621 11.0009 5.12674 11.0005C5.24728 11.0001 5.36656 10.9759 5.47776 10.9294C5.58895 10.8828 5.6899 10.8149 5.77483 10.7293C5.85976 10.6438 5.92702 10.5424 5.97275 10.4309C6.01849 10.3193 6.04181 10.1999 6.04138 10.0794C6.04095 9.95882 6.01679 9.83955 5.97027 9.72835C5.92375 9.61715 5.85578 9.5162 5.77025 9.43127L2.7521 6.4223H11.9258C12.1691 6.4223 12.4024 6.32565 12.5745 6.15361C12.7465 5.98157 12.8432 5.74824 12.8432 5.50494C12.8432 5.26163 12.7465 5.0283 12.5745 4.85626C12.4024 4.68422 12.1691 4.58757 11.9258 4.58757Z" fill="black"/>
</svg>
