<svg width="16" height="16" viewBox="0 0 16 16" fill="none" xmlns="http://www.w3.org/2000/svg">
<g clip-path="url(#clip0_68_2905)">
<path d="M8.00005 1.33327C8.88439 1.33617 9.75938 1.51443 10.5744 1.85773C11.3894 2.20103 12.1282 2.70255 12.7481 3.33327H10.6667C10.4899 3.33327 10.3203 3.40351 10.1953 3.52854C10.0703 3.65356 10.0001 3.82313 10.0001 3.99994C10.0001 4.17675 10.0703 4.34632 10.1953 4.47134C10.3203 4.59637 10.4899 4.66661 10.6667 4.66661H13.4287C13.757 4.66643 14.0718 4.53594 14.3039 4.30381C14.5361 4.07168 14.6665 3.75689 14.6667 3.42861V0.666607C14.6667 0.489796 14.5965 0.320226 14.4715 0.195202C14.3464 0.0701777 14.1769 -6.01645e-05 14.0001 -6.01645e-05C13.8232 -6.01645e-05 13.6537 0.0701777 13.5287 0.195202C13.4036 0.320226 13.3334 0.489796 13.3334 0.666607V2.05194C12.2315 1.05958 10.8751 0.393546 9.41612 0.128439C7.95713 -0.136668 6.45314 0.00961447 5.07258 0.550905C3.69202 1.0922 2.4894 2.00712 1.59939 3.19322C0.709392 4.37932 0.167148 5.78977 0.033387 7.26661C0.0247759 7.35944 0.0355975 7.45306 0.0651622 7.54148C0.094727 7.62991 0.142387 7.71121 0.205105 7.7802C0.267822 7.84919 0.344223 7.90436 0.429439 7.94219C0.514655 7.98002 0.606817 7.99969 0.700054 7.99994C0.863112 8.00202 1.02108 7.94317 1.14303 7.8349C1.26498 7.72664 1.34213 7.57676 1.35939 7.41461C1.5078 5.75511 2.27137 4.21107 3.50011 3.08583C4.72885 1.96059 6.33393 1.33547 8.00005 1.33327ZM15.3007 7.99994C15.1377 7.99786 14.9797 8.05671 14.8577 8.16498C14.7358 8.27324 14.6586 8.42312 14.6414 8.58527C14.5312 9.8541 14.0593 11.0647 13.2818 12.0734C12.5043 13.0821 11.4538 13.8467 10.2548 14.2763C9.05587 14.7059 7.75885 14.7827 6.51762 14.4973C5.27639 14.212 4.14305 13.5767 3.25205 12.6666H5.33339C5.5102 12.6666 5.67977 12.5964 5.80479 12.4713C5.92982 12.3463 6.00005 12.1768 6.00005 11.9999C6.00005 11.8231 5.92982 11.6536 5.80479 11.5285C5.67977 11.4035 5.5102 11.3333 5.33339 11.3333H2.57139C2.40879 11.3332 2.24776 11.3651 2.09752 11.4273C1.94728 11.4895 1.81077 11.5807 1.69579 11.6957C1.58082 11.8107 1.48963 11.9472 1.42745 12.0974C1.36526 12.2476 1.3333 12.4087 1.33339 12.5713V15.3333C1.33339 15.5101 1.40362 15.6797 1.52865 15.8047C1.65367 15.9297 1.82324 15.9999 2.00005 15.9999C2.17686 15.9999 2.34643 15.9297 2.47146 15.8047C2.59648 15.6797 2.66672 15.5101 2.66672 15.3333V13.9479C3.76861 14.9403 5.125 15.6063 6.58399 15.8714C8.04298 16.1365 9.54697 15.9903 10.9275 15.449C12.3081 14.9077 13.5107 13.9928 14.4007 12.8067C15.2907 11.6206 15.833 10.2101 15.9667 8.73327C15.9753 8.64044 15.9645 8.54682 15.9349 8.4584C15.9054 8.36997 15.8577 8.28867 15.795 8.21968C15.7323 8.15069 15.6559 8.09552 15.5707 8.05769C15.4855 8.01986 15.394 8.00019 15.3007 7.99994Z" fill="black"/>
</g>
<defs>
<clipPath id="clip0_68_2905">
<rect width="16" height="16" fill="white"/>
</clipPath>
</defs>
</svg>
