<svg width="12" height="11" viewBox="0 0 12 11" fill="none" xmlns="http://www.w3.org/2000/svg">
<path d="M6.92789 5.25001L11.0577 9.3794C11.3141 9.63576 11.3141 10.0514 11.0577 10.3077C10.8014 10.5641 10.3857 10.5641 10.1294 10.3077L5.99999 6.17791L1.8706 10.3077C1.61424 10.5641 1.19861 10.5641 0.942268 10.3077C0.685931 10.0514 0.685911 9.63574 0.942268 9.3794L5.07209 5.25001L0.942268 1.1206C0.685911 0.864242 0.685911 0.448606 0.942268 0.192268C1.19863 -0.0640688 1.61426 -0.0640888 1.8706 0.192268L5.99999 4.32211L10.1294 0.192268C10.3857 -0.0640888 10.8014 -0.0640888 11.0577 0.192268C11.3141 0.448627 11.3141 0.864262 11.0577 1.1206L6.92789 5.25001Z" fill="#868A95"/>
</svg>
