<svg width="19" height="13" viewBox="0 0 19 13" fill="none" xmlns="http://www.w3.org/2000/svg">
<path d="M18.0375 5.9085C17.4034 4.52183 14.9168 0 9.50013 0C4.08346 0 1.59685 4.52183 0.962742 5.9085C0.87762 6.09433 0.833557 6.29632 0.833557 6.50072C0.833557 6.70512 0.87762 6.90711 0.962742 7.09294C1.59685 8.47817 4.08346 13 9.50013 13C14.9168 13 17.4034 8.47817 18.0375 7.0915C18.1225 6.90588 18.1664 6.70414 18.1664 6.5C18.1664 6.29586 18.1225 6.09412 18.0375 5.9085ZM9.50013 11.5556C4.94508 11.5556 2.81958 7.68011 2.27791 6.50794C2.81958 5.31989 4.94508 1.44444 9.50013 1.44444C14.0444 1.44444 16.1706 5.30328 16.7224 6.5C16.1706 7.69672 14.0444 11.5556 9.50013 11.5556Z" fill="#BFC3CE"/>
<path d="M9.50015 2.88892C8.78594 2.88892 8.08777 3.1007 7.49392 3.4975C6.90008 3.89429 6.43724 4.45827 6.16392 5.11812C5.8906 5.77796 5.81909 6.50403 5.95843 7.20452C6.09776 7.90501 6.44169 8.54845 6.94671 9.05347C7.45173 9.55849 8.09517 9.90242 8.79566 10.0418C9.49615 10.1811 10.2222 10.1096 10.8821 9.83626C11.5419 9.56294 12.1059 9.1001 12.5027 8.50625C12.8995 7.91241 13.1113 7.21424 13.1113 6.50003C13.1101 5.54265 12.7293 4.62482 12.0523 3.94785C11.3754 3.27089 10.4575 2.89006 9.50015 2.88892ZM9.50015 8.66669C9.07162 8.66669 8.65272 8.53962 8.29642 8.30154C7.94011 8.06347 7.6624 7.72508 7.49841 7.32917C7.33442 6.93327 7.29151 6.49762 7.37512 6.07733C7.45872 5.65704 7.66507 5.27098 7.96809 4.96796C8.2711 4.66495 8.65716 4.45859 9.07746 4.37499C9.49775 4.29139 9.93339 4.3343 10.3293 4.49829C10.7252 4.66228 11.0636 4.93999 11.3017 5.29629C11.5397 5.6526 11.6668 6.0715 11.6668 6.50003C11.6668 7.07466 11.4385 7.62576 11.0322 8.03209C10.6259 8.43842 10.0748 8.66669 9.50015 8.66669Z" fill="#BFC3CE"/>
</svg>
