<svg width="15" height="19" viewBox="0 0 15 19" fill="none" xmlns="http://www.w3.org/2000/svg">
<path fill-rule="evenodd" clip-rule="evenodd" d="M1.21065 1.62715C1.61893 1.21887 2.17268 0.989502 2.75008 0.989502H9.47925C9.63672 0.989502 9.78774 1.05206 9.89909 1.16341L14.2533 5.51757C14.3646 5.62892 14.4272 5.77995 14.4272 5.93742V15.8333C14.4272 16.4107 14.1978 16.9644 13.7895 17.3727C13.3812 17.781 12.8275 18.0103 12.2501 18.0103H2.75008C2.17268 18.0103 1.61893 17.781 1.21065 17.3727C0.802369 16.9644 0.572998 16.4107 0.572998 15.8333V3.16659C0.572998 2.58919 0.802369 2.03544 1.21065 1.62715ZM12.7958 5.7395L9.67717 2.62086V5.7395H12.7958ZM8.48967 2.177V6.33325C8.48967 6.66117 8.7555 6.927 9.08342 6.927H13.2397V15.8333C13.2397 16.0957 13.1354 16.3474 12.9498 16.533C12.7642 16.7186 12.5125 16.8228 12.2501 16.8228H2.75008C2.48763 16.8228 2.23592 16.7186 2.05034 16.533C1.86476 16.3474 1.7605 16.0957 1.7605 15.8333V3.16659C1.7605 2.90413 1.86476 2.65243 2.05034 2.46684C2.23592 2.28126 2.48763 2.177 2.75008 2.177H8.48967ZM3.73967 7.12492C3.73967 6.797 4.0055 6.53117 4.33342 6.53117H5.91675C6.24467 6.53117 6.5105 6.797 6.5105 7.12492C6.5105 7.45284 6.24467 7.71867 5.91675 7.71867H4.33342C4.0055 7.71867 3.73967 7.45284 3.73967 7.12492ZM3.73967 10.2916C3.73967 9.96367 4.0055 9.69784 4.33342 9.69784H10.6667C10.9947 9.69784 11.2605 9.96367 11.2605 10.2916C11.2605 10.6195 10.9947 10.8853 10.6667 10.8853H4.33342C4.0055 10.8853 3.73967 10.6195 3.73967 10.2916ZM3.73967 13.4583C3.73967 13.1303 4.0055 12.8645 4.33342 12.8645H10.6667C10.9947 12.8645 11.2605 13.1303 11.2605 13.4583C11.2605 13.7862 10.9947 14.052 10.6667 14.052H4.33342C4.0055 14.052 3.73967 13.7862 3.73967 13.4583Z" fill="white"/>
</svg>
