<svg width="22" height="24" viewBox="0 0 22 24" fill="none" xmlns="http://www.w3.org/2000/svg">
<path fill-rule="evenodd" clip-rule="evenodd" d="M11.8 3.9998C11.8 3.33706 12.3373 2.7998 13 2.7998H20C20.6628 2.7998 21.2001 3.33706 21.2001 3.9998C21.2001 4.66255 20.6628 5.1998 20 5.1998H13C12.3373 5.1998 11.8 4.66255 11.8 3.9998Z" fill="white"/>
<path fill-rule="evenodd" clip-rule="evenodd" d="M0.800049 3.9998C0.800049 3.33706 1.33731 2.7998 2.00005 2.7998H9.00005C9.66279 2.7998 10.2 3.33706 10.2 3.9998C10.2 4.66255 9.66279 5.1998 9.00005 5.1998H2.00005C1.33731 5.1998 0.800049 4.66255 0.800049 3.9998Z" fill="white"/>
<path fill-rule="evenodd" clip-rule="evenodd" d="M9.80005 11.9998C9.80005 11.3371 10.3373 10.7998 11 10.7998H20C20.6628 10.7998 21.2001 11.3371 21.2001 11.9998C21.2001 12.6625 20.6628 13.1998 20 13.1998H11C10.3373 13.1998 9.80005 12.6625 9.80005 11.9998Z" fill="white"/>
<path fill-rule="evenodd" clip-rule="evenodd" d="M0.800049 11.9998C0.800049 11.3371 1.33731 10.7998 2.00005 10.7998H7.00005C7.66279 10.7998 8.20005 11.3371 8.20005 11.9998C8.20005 12.6625 7.66279 13.1998 7.00005 13.1998H2.00005C1.33731 13.1998 0.800049 12.6625 0.800049 11.9998Z" fill="white"/>
<path fill-rule="evenodd" clip-rule="evenodd" d="M13.8 19.9998C13.8 19.3371 14.3373 18.7998 15 18.7998H20C20.6628 18.7998 21.2001 19.3371 21.2001 19.9998C21.2001 20.6625 20.6628 21.1998 20 21.1998H15C14.3373 21.1998 13.8 20.6625 13.8 19.9998Z" fill="white"/>
<path fill-rule="evenodd" clip-rule="evenodd" d="M0.800049 19.9998C0.800049 19.3371 1.33731 18.7998 2.00005 18.7998H11C11.6628 18.7998 12.2 19.3371 12.2 19.9998C12.2 20.6625 11.6628 21.1998 11 21.1998H2.00005C1.33731 21.1998 0.800049 20.6625 0.800049 19.9998Z" fill="white"/>
<path fill-rule="evenodd" clip-rule="evenodd" d="M13 0.799805C13.6628 0.799805 14.2 1.33706 14.2 1.9998V5.9998C14.2 6.66255 13.6628 7.1998 13 7.1998C12.3373 7.1998 11.8 6.66255 11.8 5.9998V1.9998C11.8 1.33706 12.3373 0.799805 13 0.799805Z" fill="white"/>
<path fill-rule="evenodd" clip-rule="evenodd" d="M7.00005 8.7998C7.66279 8.7998 8.20005 9.33706 8.20005 9.9998V13.9998C8.20005 14.6625 7.66279 15.1998 7.00005 15.1998C6.33731 15.1998 5.80005 14.6625 5.80005 13.9998V9.9998C5.80005 9.33706 6.33731 8.7998 7.00005 8.7998Z" fill="white"/>
<path fill-rule="evenodd" clip-rule="evenodd" d="M15 16.7998C15.6628 16.7998 16.2 17.3371 16.2 17.9998V21.9998C16.2 22.6625 15.6628 23.1998 15 23.1998C14.3373 23.1998 13.8 22.6625 13.8 21.9998V17.9998C13.8 17.3371 14.3373 16.7998 15 16.7998Z" fill="white"/>
</svg>
