<svg width="16" height="16" viewBox="0 0 16 16" fill="none" xmlns="http://www.w3.org/2000/svg">
<g clip-path="url(#clip0_17_280)">
<path d="M13.6568 2.34315C12.1565 0.842858 10.1216 0 7.99991 0C5.87817 0 3.84333 0.842858 2.34303 2.34315C0.842736 3.84345 -0.00012207 5.87829 -0.00012207 8.00003C-0.00012207 10.1218 0.842736 12.1566 2.34303 13.6569C3.84333 15.1572 5.87817 16.0001 7.99991 16.0001C10.1216 16.0001 12.1565 15.1572 13.6568 13.6569C15.1571 12.1566 15.9999 10.1218 15.9999 8.00003C15.9999 5.87829 15.1571 3.84345 13.6568 2.34315ZM7.99991 14.911C7.69413 14.911 7.17741 14.432 6.72744 13.0822C6.52375 12.4712 6.36163 11.7666 6.245 11H9.75481C9.63819 11.7666 9.47606 12.4712 9.27238 13.0822C8.82241 14.432 8.30569 14.911 7.99991 14.911ZM6.12222 10C6.06125 9.3589 6.02956 8.68734 6.02956 8.00003C6.02956 7.31272 6.06125 6.64115 6.12222 6.00003H9.87759C9.93856 6.64115 9.97025 7.31272 9.97025 8.00003C9.97025 8.68734 9.93856 9.3589 9.87759 10H6.12222ZM0.999907 8.00003C0.999525 7.32274 1.09775 6.64901 1.2915 6.00003H5.11834C5.05988 6.64475 5.02956 7.31584 5.02956 8.00003C5.02956 8.68422 5.05988 9.35531 5.11834 10H1.2915C1.09775 9.35105 0.999525 8.67731 0.999907 8.00003ZM7.99991 1.08909C8.30569 1.08909 8.82241 1.56803 9.27238 2.91781C9.47606 3.5289 9.63819 4.23344 9.75481 5.00003H6.245C6.36163 4.23344 6.52375 3.5289 6.72744 2.91781C7.17741 1.56803 7.69413 1.08909 7.99991 1.08909ZM10.8815 6.00003H14.7083C15.0971 7.30502 15.0971 8.69504 14.7083 10H10.8815C10.9399 9.35531 10.9703 8.68422 10.9703 8.00003C10.9703 7.31584 10.9399 6.64475 10.8815 6.00003ZM14.3236 5.00003H10.765C10.6384 4.11747 10.4553 3.30444 10.221 2.60159C10.0203 1.99922 9.80228 1.53515 9.57828 1.17947C10.6052 1.41946 11.565 1.88749 12.3864 2.54885C13.2079 3.21022 13.87 4.04798 14.3236 5.00003ZM6.42153 1.17947C6.19766 1.53515 5.97956 1.99922 5.77878 2.60159C5.54441 3.30444 5.36144 4.11747 5.23485 5.00003H1.67622C2.12986 4.04798 2.79194 3.21022 3.61339 2.54885C4.43484 1.88749 5.3946 1.41946 6.42153 1.17947ZM1.67622 11H5.23485C5.36144 11.8826 5.5445 12.6956 5.77878 13.3985C5.97956 14.0008 6.19753 14.4649 6.42153 14.8206C5.3946 14.5806 4.43484 14.1126 3.61339 13.4512C2.79194 12.7898 2.12986 11.9521 1.67622 11ZM9.57828 14.8206C9.80216 14.4649 10.0203 14.0008 10.221 13.3985C10.4554 12.6956 10.6384 11.8826 10.765 11H14.3236C13.87 11.9521 13.2079 12.7898 12.3864 13.4512C11.565 14.1126 10.6052 14.5806 9.57828 14.8206Z" fill="black"/>
</g>
<defs>
<clipPath id="clip0_17_280">
<rect width="16" height="16" fill="white"/>
</clipPath>
</defs>
</svg>
