<svg width="18" height="20" viewBox="0 0 18 20" fill="none" xmlns="http://www.w3.org/2000/svg">
<path d="M14.8333 7.02V5.83332C14.8333 2.61168 12.2216 0 8.99995 0C5.77827 0 3.16663 2.61168 3.16663 5.83332V7.02C1.64999 7.68191 0.668813 9.17855 0.666626 10.8333V15.8333C0.66936 18.1334 2.53323 19.9973 4.83327 20H13.1666C15.4666 19.9973 17.3305 18.1334 17.3333 15.8333V10.8333C17.3311 9.17855 16.3499 7.68191 14.8333 7.02ZM9.83327 14.1667C9.83327 14.6269 9.46018 15 8.99995 15C8.53971 15 8.16663 14.6269 8.16663 14.1667V12.5C8.16663 12.0398 8.53971 11.6667 8.99995 11.6667C9.46018 11.6667 9.83327 12.0398 9.83327 12.5V14.1667ZM13.1666 6.66668H4.83327V5.83336C4.83327 3.53219 6.69874 1.66668 8.99995 1.66668C11.3012 1.66668 13.1666 3.53215 13.1666 5.83336V6.66668Z" fill="#AE1F2C"/>
</svg>
