<svg width="18" height="20" viewBox="0 0 18 20" fill="none" xmlns="http://www.w3.org/2000/svg">
<path d="M14.8333 7.02V5.83333C14.8333 4.28624 14.2187 2.80251 13.1247 1.70854C12.0308 0.614582 10.5471 0 8.99996 0C7.45286 0 5.96913 0.614582 4.87517 1.70854C3.78121 2.80251 3.16663 4.28624 3.16663 5.83333V7.02C2.42443 7.34392 1.7927 7.8771 1.34871 8.55434C0.904714 9.23158 0.667691 10.0235 0.666626 10.8333V15.8333C0.667949 16.938 1.10736 17.997 1.88848 18.7782C2.66959 19.5593 3.72863 19.9987 4.83329 20H13.1666C14.2713 19.9987 15.3303 19.5593 16.1114 18.7782C16.8926 17.997 17.332 16.938 17.3333 15.8333V10.8333C17.3322 10.0235 17.0952 9.23158 16.6512 8.55434C16.2072 7.8771 15.5755 7.34392 14.8333 7.02ZM4.83329 5.83333C4.83329 4.72826 5.27228 3.66846 6.05368 2.88705C6.83508 2.10565 7.89489 1.66667 8.99996 1.66667C10.105 1.66667 11.1648 2.10565 11.9462 2.88705C12.7276 3.66846 13.1666 4.72826 13.1666 5.83333V6.66667H4.83329V5.83333ZM15.6666 15.8333C15.6666 16.4964 15.4032 17.1323 14.9344 17.6011C14.4656 18.0699 13.8297 18.3333 13.1666 18.3333H4.83329C4.17025 18.3333 3.53437 18.0699 3.06553 17.6011C2.59668 17.1323 2.33329 16.4964 2.33329 15.8333V10.8333C2.33329 10.1703 2.59668 9.53441 3.06553 9.06557C3.53437 8.59672 4.17025 8.33333 4.83329 8.33333H13.1666C13.8297 8.33333 14.4656 8.59672 14.9344 9.06557C15.4032 9.53441 15.6666 10.1703 15.6666 10.8333V15.8333Z" fill="#AE1F2C"/>
<path d="M8.99996 11.6667C8.77895 11.6667 8.56698 11.7545 8.4107 11.9108C8.25442 12.0671 8.16663 12.2791 8.16663 12.5001V14.1667C8.16663 14.3878 8.25442 14.5997 8.4107 14.756C8.56698 14.9123 8.77895 15.0001 8.99996 15.0001C9.22097 15.0001 9.43293 14.9123 9.58921 14.756C9.7455 14.5997 9.83329 14.3878 9.83329 14.1667V12.5001C9.83329 12.2791 9.7455 12.0671 9.58921 11.9108C9.43293 11.7545 9.22097 11.6667 8.99996 11.6667Z" fill="#AE1F2C"/>
</svg>
