<svg width="16" height="20" viewBox="0 0 16 20" fill="none" xmlns="http://www.w3.org/2000/svg">
<path d="M15.5 20.0001H13.8334V15.7975C13.8327 15.1442 13.5729 14.5178 13.1109 14.0558C12.6489 13.5939 12.0225 13.334 11.3692 13.3334H4.63084C3.97751 13.334 3.35112 13.5939 2.88914 14.0558C2.42716 14.5178 2.16733 15.1442 2.16667 15.7975V20.0001H0.5V15.7975C0.501323 14.7024 0.936961 13.6525 1.71136 12.8781C2.48575 12.1037 3.53568 11.668 4.63084 11.6667H11.3692C12.4644 11.668 13.5143 12.1037 14.2887 12.8781C15.0631 13.6525 15.4987 14.7024 15.5 15.7975V20.0001ZM8.00002 10C7.01111 10 6.04441 9.70678 5.22216 9.15737C4.39991 8.60796 3.75905 7.82707 3.38061 6.91344C3.00217 5.9998 2.90315 4.99447 3.09608 4.02456C3.28901 3.05465 3.76521 2.16374 4.46448 1.46447C5.16374 0.765208 6.05466 0.289003 7.02456 0.0960761C7.99447 -0.0968505 8.99981 0.00216644 9.91344 0.380606C10.8271 0.759045 11.608 1.39991 12.1574 2.22216C12.7068 3.0444 13 4.01111 13 5.00001C12.9987 6.32569 12.4715 7.5967 11.5341 8.5341C10.5967 9.47149 9.3257 9.9987 8.00002 10ZM8.00002 1.66667C7.34075 1.66667 6.69628 1.86217 6.14811 2.22844C5.59995 2.59471 5.1727 3.11531 4.92041 3.7244C4.66812 4.33349 4.60211 5.00371 4.73073 5.65032C4.85934 6.29692 5.17681 6.89087 5.64299 7.35704C6.10917 7.82322 6.70311 8.14069 7.34972 8.26931C7.99632 8.39793 8.66654 8.33191 9.27563 8.07962C9.88472 7.82733 10.4053 7.40008 10.7716 6.85192C11.1379 6.30375 11.3334 5.65929 11.3334 5.00001C11.3334 4.11596 10.9822 3.26811 10.357 2.64299C9.73192 2.01786 8.88408 1.66667 8.00002 1.66667Z" fill="#AE1F2C"/>
</svg>
