<svg width="95" height="29" viewBox="0 0 95 29" fill="none" xmlns="http://www.w3.org/2000/svg">
<path fill-rule="evenodd" clip-rule="evenodd" d="M0.218506 2.12158H5.25876V15.4175H0.218506V2.12158ZM16.771 28.705L10.2823 2.12158H5.25039L11.714 28.705H16.771ZM16.771 28.705H21.8196L28.2832 2.12158H23.2513L16.771 28.705ZM33.3235 15.4175H28.2832V28.7134H33.3235V15.4175Z" fill="white"/>
<path d="M41.1016 8.67366C41.5537 8.67366 41.7631 8.56556 41.7631 7.50123V3.19399C41.7631 2.27101 41.4951 2.17954 41.1016 2.17954V1.97998H43.312L45.447 6.4452L47.5401 1.97998H49.7588V2.17954C49.2648 2.17954 49.0974 2.33753 49.0974 3.36029V7.60101C49.0974 8.59051 49.2816 8.67366 49.7588 8.67366V8.87322H46.728V8.67366C47.1717 8.67366 47.3894 8.61545 47.3894 7.59269V3.01937L44.8107 8.55725H44.6265L42.0477 3.11915V7.47628C42.0477 8.56556 42.257 8.67366 42.7092 8.67366V8.87322H41.0933V8.67366H41.1016Z" fill="white"/>
<path d="M53.0995 9.04796C51.5841 9.04796 50.4873 8.0834 50.4873 6.47027C50.4873 4.64926 51.8771 3.60986 53.3591 3.60986C54.6401 3.60986 55.4773 4.38317 55.4773 5.2812C55.4773 5.59718 55.3099 5.72191 54.8075 5.72191H52.1032V5.89652C52.1032 7.31841 52.7897 8.22476 53.8782 8.22476C54.5898 8.22476 55.1341 7.83395 55.6113 7.04401L55.762 7.14379C55.1675 8.3578 54.3805 9.04796 53.0995 9.04796ZM52.1199 5.52234H53.3005C53.7693 5.52234 53.9452 5.45582 53.9452 4.99018C53.9452 4.35823 53.7191 3.80943 53.1749 3.80943C52.5051 3.81774 52.1869 4.65757 52.1199 5.52234Z" fill="white"/>
<path d="M56.2476 8.67366C56.7835 8.67366 56.8505 8.41589 56.8505 7.45133V1.88851H56.256V1.70558C57.0095 1.70558 57.9473 1.39792 58.2738 0.849121H58.4496V7.45133C58.4496 8.41589 58.4998 8.67366 59.0441 8.67366V8.87322H56.2393V8.67366H56.2476Z" fill="white"/>
<path d="M59.8477 8.67366C60.3836 8.67366 60.4505 8.41589 60.4505 7.45133V1.88851H59.8561V1.70558C60.6096 1.70558 61.5473 1.39792 61.8739 0.849121H62.0497V7.45133C62.0497 8.41589 62.0999 8.67366 62.6441 8.67366V8.87322H59.8394V8.67366H59.8477Z" fill="white"/>
<path d="M63.473 8.67357C64.0004 8.67357 64.0674 8.4158 64.0674 7.45125V4.5659H63.4813V4.37465C64.2265 4.37465 65.1642 4.06699 65.4908 3.51819H65.6666V7.45125C65.6666 8.4158 65.7084 8.67357 66.261 8.67357V8.87313H63.4646V8.67357H63.473ZM64.8042 2.91119C64.3353 2.91119 63.9502 2.53701 63.9502 2.05473C63.9502 1.57245 64.3353 1.18164 64.8042 1.18164C65.2731 1.18164 65.6582 1.57245 65.6582 2.05473C65.6582 2.53701 65.2647 2.91119 64.8042 2.91119Z" fill="white"/>
<path d="M70.9077 8.67393C71.3431 8.67393 71.4352 8.39122 71.4352 7.43498V5.49755C71.4352 4.74088 71.1003 4.43322 70.5812 4.43322C70.0705 4.43322 69.6184 4.72425 69.317 5.09843V7.45161C69.317 8.41616 69.3756 8.67393 69.8779 8.67393V8.8735H67.115V8.67393C67.6425 8.67393 67.7094 8.41616 67.7094 7.45161V4.56626H67.1234V4.37501C67.8685 4.37501 68.8062 4.06735 69.1328 3.51855H69.3086V4.77414H69.3253C69.7607 4.19208 70.5728 3.60171 71.4436 3.60171C72.3981 3.60171 73.026 4.14219 73.026 5.48924V7.42667C73.026 8.40785 73.0762 8.66562 73.6204 8.66562V8.86518H70.8994V8.67393H70.9077Z" fill="white"/>
<path d="M76.8523 11.4927C75.5295 11.4927 74.4243 11.0935 74.4243 10.287C74.4243 9.7465 74.9099 9.32243 75.7723 9.15612C75.1276 9.06466 74.642 8.74037 74.642 8.19988C74.642 7.66772 75.1192 7.30185 75.9649 7.13555C75.1444 6.87778 74.709 6.29572 74.709 5.56399C74.709 4.49965 75.6216 3.69308 77.1789 3.69308C78.6524 3.69308 79.0292 3.00293 79.5232 3.00293C79.7911 3.00293 79.9502 3.16923 79.9502 3.427C79.9502 3.67646 79.7827 3.90928 79.3474 3.90928C78.9287 3.90928 78.485 3.85107 78.0915 3.8095L78.0747 3.85107C78.6608 4.03401 79.5232 4.48302 79.5232 5.52241C79.5232 6.5618 78.6441 7.29354 77.1454 7.29354C76.8607 7.29354 76.6095 7.27691 76.3919 7.23533C75.9565 7.29354 75.7053 7.41826 75.7053 7.64277C75.7053 7.84233 75.9063 7.95875 76.4588 7.96706L77.8738 8.00032C79.2636 8.03358 80.0004 8.46597 80.0004 9.39726C80.0004 10.5531 78.8701 11.4927 76.8523 11.4927ZM77.2207 11.2682C78.4013 11.2682 79.1213 10.7111 79.1213 10.0625C79.1213 9.64672 78.8366 9.28917 77.8068 9.25591L76.8523 9.22264C76.6012 9.21433 76.35 9.20601 76.1407 9.18107C75.7555 9.39726 75.5295 9.72155 75.5295 10.1373C75.5295 10.8108 76.1239 11.2682 77.2207 11.2682ZM77.1035 7.11892C77.5808 7.11892 77.9826 6.70316 77.9826 5.49747C77.9826 4.30009 77.6226 3.87602 77.1203 3.87602C76.5844 3.87602 76.2579 4.32503 76.2579 5.52241C76.2579 6.73642 76.6263 7.11892 77.1035 7.11892Z" fill="white"/>
<path d="M41.8635 13.33C41.47 12.4902 41.2858 12.1576 40.9509 12.1576V11.958H44.3251V12.1576C43.4711 12.1576 43.4376 12.6648 43.739 13.33L45.3465 16.7891L46.594 13.6127C46.9624 12.6897 46.8452 12.1576 45.8489 12.1576V11.958H47.9755V12.1576C47.4564 12.1576 47.2303 12.6897 46.8703 13.621L44.7353 19.0176H44.5344L41.8635 13.33Z" fill="white"/>
<path d="M50.6713 19.026C48.9968 19.026 47.7996 18.0032 47.7996 16.3485C47.7996 14.5774 49.1727 13.5879 50.8137 13.5879C52.4882 13.5879 53.6771 14.6107 53.6771 16.257C53.6771 18.0282 52.2956 19.026 50.6713 19.026ZM50.7634 18.8181C51.5588 18.8181 52.0026 17.9367 52.0026 16.4067C52.0026 14.5774 51.4667 13.7875 50.7132 13.7875C49.9178 13.7875 49.4824 14.6689 49.4824 16.1988C49.4824 18.0282 50.0183 18.8181 50.7634 18.8181Z" fill="white"/>
<path d="M54.4725 18.6516C55 18.6516 55.0669 18.3938 55.0669 17.4293V14.5439H54.4809V14.3527C55.226 14.3527 56.1637 14.045 56.4903 13.4962H56.6661V17.4293C56.6661 18.3938 56.7079 18.6516 57.2605 18.6516V18.8512H54.4641V18.6516H54.4725ZM55.7953 12.8892C55.3265 12.8892 54.9413 12.515 54.9413 12.0328C54.9413 11.5505 55.3265 11.1597 55.7953 11.1597C56.2642 11.1597 56.6493 11.5505 56.6493 12.0328C56.6493 12.515 56.2642 12.8892 55.7953 12.8892Z" fill="white"/>
<path d="M59.8896 19.0259C59.0356 19.0259 58.4746 18.5935 58.4746 17.5209V13.962H57.9304V13.7708C59.0272 13.7209 59.5882 13.1887 59.9147 12.2158H60.0822V13.7624H61.3632V13.962H60.0822V17.6622C60.0822 18.211 60.3417 18.4522 60.6264 18.4522C60.9362 18.4522 61.1622 18.1944 61.3883 17.8452L61.539 17.9366C61.1706 18.6268 60.6934 19.0259 59.8896 19.0259Z" fill="white"/>
<path d="M62.0413 18.6516C62.5688 18.6516 62.6358 18.3938 62.6358 17.4293V14.5439H62.0497V14.3527C62.7949 14.3527 63.7326 14.045 64.0591 13.4962H64.2349V17.4293C64.2349 18.3938 64.2768 18.6516 64.8294 18.6516V18.8512H62.033V18.6516H62.0413ZM63.3726 12.8892C62.9037 12.8892 62.5186 12.515 62.5186 12.0328C62.5186 11.5505 62.9037 11.1597 63.3726 11.1597C63.8414 11.1597 64.2266 11.5505 64.2266 12.0328C64.2182 12.515 63.8331 12.8892 63.3726 12.8892Z" fill="white"/>
<path d="M65.9177 19.0178L65.767 17.3049L65.9512 17.2882C66.2107 18.311 66.8387 18.8099 67.6257 18.8099C68.2285 18.8099 68.6723 18.5189 68.6723 18.02C68.6723 17.4712 68.0694 17.1552 67.2573 16.8226C66.5122 16.5149 65.6917 16.0908 65.6917 15.1346C65.6917 14.1035 66.621 13.588 67.7513 13.588C68.463 13.588 68.7979 13.7959 69.0323 13.7959C69.1495 13.7959 69.2416 13.7377 69.2081 13.563L69.3672 13.5298L69.7272 15.1845L69.5095 15.2427C69.0825 14.2199 68.5551 13.8042 67.902 13.8042C67.3494 13.8042 67.048 14.0869 67.048 14.4611C67.048 14.9267 67.5336 15.2011 68.396 15.5753C69.2583 15.9495 69.97 16.4318 69.97 17.3298C69.97 18.4523 68.8816 19.0344 67.7429 19.0344C66.9643 19.0344 66.621 18.76 66.328 18.76C66.1521 18.76 66.0684 18.8598 66.0768 19.0095L65.9177 19.0178Z" fill="white"/>
<path d="M70.6566 18.6518C71.1924 18.6518 71.2594 18.394 71.2594 17.4294V11.8334H70.6649V11.6338C71.4185 11.6338 72.3562 11.3261 72.6827 10.7773H72.8585V14.7187C73.2939 14.1367 74.0893 13.5795 74.96 13.5795C75.9145 13.5795 76.5341 14.12 76.5341 15.4671V17.4045C76.5341 18.3857 76.5927 18.6435 77.1285 18.6435V18.843H74.4158V18.6435C74.8428 18.6435 74.9349 18.3607 74.9349 17.4045V15.4671C74.9349 14.7104 74.6 14.4027 74.0893 14.4027C73.5953 14.4027 73.1683 14.6688 72.8585 15.0264V17.4294C72.8585 18.394 72.9088 18.6518 73.4195 18.6518V18.8513H70.6482V18.6518H70.6566Z" fill="white"/>
<path d="M77.7399 18.652C78.2757 18.652 78.3427 18.3942 78.3427 17.4296V11.2765L77.7231 11.3679V11.2681C78.4767 11.2681 79.4395 10.6362 79.766 10.0874L79.9419 9.81299V16.2905L81.7085 14.7937C82.3029 14.2699 82.1355 13.9456 81.3987 13.9456V13.7627H83.7932V13.9456C83.2155 13.9456 82.7969 14.1452 82.169 14.6857L81.4489 15.2927L83.1988 17.8703C83.5337 18.3859 83.7346 18.6437 84.103 18.6437V18.8432H81.8927C81.6917 18.5106 81.4657 18.1614 81.1977 17.7706L80.2098 16.332L79.9419 16.5566V17.4296C79.9419 18.3942 79.9921 18.652 80.5363 18.652V18.8515H77.7315V18.652H77.7399Z" fill="white"/>
<path d="M84.7225 18.6516C85.25 18.6516 85.3169 18.3938 85.3169 17.4293V14.5439H84.7309V14.3527C85.476 14.3527 86.4137 14.045 86.7403 13.4962H86.9161V17.4293C86.9161 18.3938 86.9579 18.6516 87.5105 18.6516V18.8512H84.7141V18.6516H84.7225ZM86.0453 12.8892C85.5765 12.8892 85.1913 12.515 85.1913 12.0328C85.1913 11.5505 85.5765 11.1597 86.0453 11.1597C86.5142 11.1597 86.8993 11.5505 86.8993 12.0328C86.8993 12.515 86.5142 12.8892 86.0453 12.8892Z" fill="white"/>
<path d="M92.0484 18.652C92.4837 18.652 92.5758 18.3692 92.5758 17.413V15.4756C92.5758 14.7189 92.2409 14.4112 91.7218 14.4112C91.2111 14.4112 90.759 14.7023 90.4576 15.0765V17.4296C90.4576 18.3942 90.5162 18.652 91.0185 18.652V18.8515H88.2556V18.652C88.7831 18.652 88.8501 18.3942 88.8501 17.4296V14.5443H88.264V14.353C89.0091 14.353 89.9469 14.0454 90.2734 13.4966H90.4492V14.7522H90.466C90.9013 14.1701 91.7135 13.5797 92.5842 13.5797C93.5387 13.5797 94.1666 14.1202 94.1666 15.4673V17.4047C94.1666 18.3859 94.2168 18.6436 94.7611 18.6436V18.8432H92.04V18.652H92.0484Z" fill="white"/>
<path d="M46.7867 28.8626C46.1504 28.8626 45.7066 28.3969 45.7066 27.0416C45.7066 26.9418 45.7067 26.8337 45.715 26.7256C45.288 27.8398 44.5345 28.8626 43.1782 28.8626C42.006 28.8626 41.1353 28.0228 41.1353 26.9169C41.1353 25.7777 42.0144 24.9711 43.3456 24.5637C42.7846 23.9899 42.5502 23.5409 42.5502 23.0586C42.5502 22.1939 43.354 21.6201 44.5512 21.6201C45.6564 21.6201 46.3932 22.0525 46.3932 22.568C46.3932 22.8424 46.1755 23.0919 45.8155 23.0919C45.0201 23.0919 44.9615 21.8197 44.2582 21.8197C43.8731 21.8197 43.6051 22.1523 43.6051 22.5764C43.6051 23.1834 44.1242 23.7238 45.4387 24.7383L45.9578 25.154C46.2174 24.2311 46.6527 23.4744 47.197 23.4744C47.4816 23.4744 47.7328 23.649 47.7328 23.9733C47.7328 24.281 47.5067 24.4888 46.9793 24.7383C46.6444 24.9046 46.4183 25.1208 46.2425 25.3869C47.5821 26.5344 47.9002 27.1829 47.9002 27.7484C47.9002 28.4718 47.3477 28.8626 46.7867 28.8626ZM42.5251 26.526C42.5251 27.449 43.0023 27.9729 43.7391 27.9729C44.6266 27.9729 45.1959 27.291 45.6229 26.4595L44.5847 25.6446C44.141 25.3037 43.781 24.9961 43.4963 24.7217C42.8516 25.1707 42.5251 25.7777 42.5251 26.526ZM45.9243 26.9418C45.9243 28.2805 46.3346 28.6298 46.7197 28.6298C46.996 28.6298 47.1384 28.4552 47.1384 28.1974C47.1384 27.8149 46.8118 27.4324 45.9327 26.7007V26.9418H45.9243Z" fill="white"/>
<path d="M48.6873 28.4886C49.2315 28.4886 49.491 28.3306 49.491 27.3993V23.0838C49.491 22.1275 49.265 21.9945 48.6873 21.9945V21.7949H51.7432C53.7526 21.7949 54.6652 22.5599 54.6652 23.8072C54.6652 25.4203 53.1414 25.9275 51.9609 25.9275C51.6846 25.9275 51.4 25.8943 51.1823 25.8527V27.2829C51.1823 28.2641 51.4669 28.4803 52.0949 28.4803V28.6798H48.6873V28.4886ZM51.7683 25.703C52.5386 25.703 52.9154 24.8383 52.9154 23.8404C52.9154 22.6514 52.413 22.0277 51.7935 22.0277C51.2911 22.0277 51.1823 22.2606 51.1823 22.9424V25.5617C51.3916 25.6615 51.5674 25.703 51.7683 25.703Z" fill="white"/>
<path d="M56.6996 28.8629C55.8958 28.8629 55.4019 28.3806 55.4019 27.6655C55.4019 26.4182 56.9089 25.8944 58.4327 25.6366V24.8799C58.4327 23.957 58.2569 23.6244 57.8717 23.6244C57.0931 23.6244 57.0178 25.2209 56.1386 25.2209C55.8205 25.2209 55.6028 25.0213 55.6028 24.6887C55.6028 23.957 56.641 23.4331 57.9722 23.4331C59.3704 23.4331 60.0402 23.9902 60.0402 25.2957V27.5491C60.0402 27.9482 60.1491 28.1228 60.35 28.1228C60.4589 28.1228 60.5593 28.0729 60.6682 27.9649L60.7938 28.0813C60.4672 28.5136 60.0235 28.8795 59.429 28.8795C58.843 28.8795 58.4578 28.522 58.4578 27.9316V27.8983H58.4076C57.9471 28.5137 57.3778 28.8629 56.6996 28.8629ZM57.6373 27.9898C57.8885 27.9898 58.148 27.8817 58.4327 27.5491V25.8445C57.6289 25.9942 56.9843 26.5097 56.9843 27.2331C56.9843 27.7071 57.2438 27.9898 57.6373 27.9898Z" fill="white"/>
<path d="M61.3967 28.4884C61.9242 28.4884 61.9912 28.214 61.9912 27.2494V24.389H61.4051V24.1895C62.1419 24.1895 63.088 23.8818 63.4145 23.333H63.5903V24.8547H63.6071C63.942 24.0148 64.4611 23.4078 65.089 23.4078C65.516 23.4078 65.809 23.6906 65.809 24.2144C65.809 24.7466 65.4909 24.9628 65.1979 24.9628C64.7792 24.9628 64.5532 24.5387 64.2685 24.5387C63.9587 24.5387 63.741 24.863 63.582 25.3868V27.2494C63.582 28.214 63.6908 28.4884 64.1848 28.4884H64.3355V28.688H61.3967V28.4884Z" fill="white"/>
<path d="M68.3459 28.8628C67.4919 28.8628 66.9309 28.4304 66.9309 27.3578V23.7989H66.3867V23.616C67.4835 23.5661 68.0445 23.0339 68.371 22.061H68.5385V23.6076H69.8195V23.8072H68.5385V27.4908C68.5385 28.0396 68.798 28.2807 69.0827 28.2807C69.3925 28.2807 69.6185 28.023 69.8446 27.6737L69.9953 27.7652C69.6185 28.4637 69.1497 28.8628 68.3459 28.8628Z" fill="white"/>
<path d="M74.24 28.4884C74.6754 28.4884 74.7675 28.2057 74.7675 27.2494V25.312C74.7675 24.5553 74.4326 24.2477 73.9135 24.2477C73.3944 24.2477 72.9507 24.5387 72.6492 24.9129V27.2661C72.6492 28.2306 72.7078 28.4884 73.2102 28.4884V28.688H70.4473V28.4884C70.9747 28.4884 71.0417 28.2306 71.0417 27.2661V24.3807H70.4556V24.1812C71.2008 24.1812 72.1385 23.8735 72.465 23.3247H72.6409V24.5803H72.6576C73.093 23.9982 73.9051 23.4079 74.7759 23.4079C75.7303 23.4079 76.3583 23.9483 76.3583 25.2954V27.2328C76.3583 28.214 76.4085 28.4718 76.9527 28.4718V28.6713H74.2317V28.4884H74.24Z" fill="white"/>
<path d="M80.193 28.8629C78.6776 28.8629 77.5808 27.8983 77.5808 26.2852C77.5808 24.4642 78.9706 23.4248 80.4526 23.4248C81.7336 23.4248 82.5708 24.1981 82.5708 25.0961C82.5708 25.4121 82.4034 25.5368 81.901 25.5368H79.1967V25.7115C79.1967 27.1333 79.8833 28.0397 80.9717 28.0397C81.6833 28.0397 82.2276 27.6489 82.7048 26.859L82.8555 26.9587C82.261 28.1727 81.474 28.8629 80.193 28.8629ZM79.2135 25.3373H80.394C80.8628 25.3373 81.0387 25.2708 81.0387 24.8051C81.0387 24.1732 80.8126 23.6244 80.2684 23.6244C79.5986 23.6244 79.2804 24.4725 79.2135 25.3373Z" fill="white"/>
<path d="M83.3746 28.4884C83.9021 28.4884 83.969 28.214 83.969 27.2494V24.389H83.383V24.1895C84.1197 24.1895 85.0658 23.8818 85.3924 23.333H85.5682V24.8547H85.5849C85.9198 24.0148 86.4389 23.4078 87.0669 23.4078C87.4939 23.4078 87.7869 23.6906 87.7869 24.2144C87.7869 24.7466 87.4687 24.9628 87.1757 24.9628C86.7571 24.9628 86.531 24.5387 86.2464 24.5387C85.9366 24.5387 85.7189 24.863 85.5598 25.3868V27.2494C85.5598 28.214 85.6687 28.4884 86.1626 28.4884H86.3133V28.688H83.3662V28.4884H83.3746Z" fill="white"/>
<path d="M88.7749 28.8459L88.6242 27.133L88.8084 27.1163C89.0679 28.1391 89.6959 28.638 90.4829 28.638C91.0857 28.638 91.5294 28.347 91.5294 27.8481C91.5294 27.2993 90.9266 26.9833 90.1145 26.6507C89.3693 26.343 88.5488 25.919 88.5488 24.9627C88.5488 23.9317 89.4782 23.4161 90.6085 23.4161C91.3201 23.4161 91.655 23.624 91.8895 23.624C92.0067 23.624 92.0988 23.5658 92.0653 23.3912L92.2244 23.3579L92.5844 25.0126L92.3667 25.0708C91.9397 24.0481 91.4122 23.6323 90.7592 23.6323C90.2066 23.6323 89.9052 23.915 89.9052 24.2892C89.9052 24.7549 90.3908 25.0293 91.2531 25.4034C92.1155 25.7776 92.8272 26.2599 92.8272 27.1579C92.8272 28.2805 91.7388 28.8625 90.6001 28.8625C89.8215 28.8625 89.4782 28.5881 89.1851 28.5881C89.0093 28.5881 88.9256 28.6879 88.934 28.8376L88.7749 28.8459Z" fill="white"/>
</svg>
