<svg width="111" height="34" viewBox="0 0 111 34" fill="none" xmlns="http://www.w3.org/2000/svg">
<path fill-rule="evenodd" clip-rule="evenodd" d="M0.772583 1.97491H6.60658V17.4868H0.772583V1.97491ZM19.9317 32.989L12.4212 1.97491H6.59689L14.0784 32.989H19.9317ZM19.9317 32.989H25.7754L33.2569 1.97491H27.4326L19.9317 32.989ZM39.0909 17.4868H33.2569V32.9987H39.0909V17.4868Z" fill="white"/>
<path d="M48.0939 9.61905C48.6172 9.61905 48.8595 9.49293 48.8595 8.25121V3.2261C48.8595 2.14929 48.5494 2.04258 48.0939 2.04258V1.80975H50.6524L53.1236 7.01918L55.5463 1.80975H58.1144V2.04258C57.5427 2.04258 57.3488 2.22689 57.3488 3.42012V8.36762C57.3488 9.52203 57.5621 9.61905 58.1144 9.61905V9.85187H54.6063V9.61905C55.1199 9.61905 55.3719 9.55114 55.3719 8.35792V3.02238L52.387 9.48323H52.1738L49.189 3.13879V8.2221C49.189 9.49293 49.4313 9.61905 49.9546 9.61905V9.85187H48.0842V9.61905H48.0939Z" fill="white"/>
<path d="M61.9811 10.0557C60.227 10.0557 58.9575 8.93037 58.9575 7.04838C58.9575 4.92387 60.5662 3.71124 62.2815 3.71124C63.7643 3.71124 64.7334 4.61343 64.7334 5.66114C64.7334 6.02978 64.5395 6.17529 63.9581 6.17529H60.8279V6.37901C60.8279 8.03788 61.6226 9.09529 62.8824 9.09529C63.7061 9.09529 64.336 8.63934 64.8884 7.71775L65.0629 7.83416C64.3748 9.2505 63.4638 10.0557 61.9811 10.0557ZM60.8473 5.94247H62.2137C62.7564 5.94247 62.9599 5.86486 62.9599 5.32161C62.9599 4.58433 62.6983 3.94407 62.0683 3.94407C61.2931 3.95377 60.9248 4.93357 60.8473 5.94247Z" fill="white"/>
<path d="M65.6249 9.61917C66.2451 9.61917 66.3227 9.31843 66.3227 8.19312V1.70316H65.6346V1.48974C66.5068 1.48974 67.5922 1.1308 67.9702 0.49054H68.1737V8.19312C68.1737 9.31843 68.2318 9.61917 68.8617 9.61917V9.85199H65.6152V9.61917H65.6249Z" fill="white"/>
<path d="M69.792 9.61917C70.4123 9.61917 70.4898 9.31843 70.4898 8.19312V1.70316H69.8017V1.48974C70.6739 1.48974 71.7593 1.1308 72.1373 0.49054H72.3408V8.19312C72.3408 9.31843 72.3989 9.61917 73.0288 9.61917V9.85199H69.7823V9.61917H69.792Z" fill="white"/>
<path d="M73.9883 9.61925C74.5989 9.61925 74.6764 9.31852 74.6764 8.1932V4.82696H73.998V4.60384C74.8605 4.60384 75.9459 4.2449 76.3239 3.60464H76.5274V8.1932C76.5274 9.31852 76.5758 9.61925 77.2154 9.61925V9.85207H73.9786V9.61925H73.9883ZM75.5292 2.89647C74.9865 2.89647 74.5407 2.45992 74.5407 1.89727C74.5407 1.33461 74.9865 0.878662 75.5292 0.878662C76.0719 0.878662 76.5177 1.33461 76.5177 1.89727C76.5177 2.45992 76.0622 2.89647 75.5292 2.89647Z" fill="white"/>
<path d="M82.5939 9.61928C83.0978 9.61928 83.2044 9.28945 83.2044 8.17384V5.91351C83.2044 5.03072 82.8168 4.67178 82.2159 4.67178C81.6248 4.67178 81.1015 5.01132 80.7526 5.44786V8.19324C80.7526 9.31855 80.8204 9.61928 81.4019 9.61928V9.85211H78.2039V9.61928C78.8144 9.61928 78.8919 9.31855 78.8919 8.19324V4.827H78.2136V4.60388C79.0761 4.60388 80.1614 4.24494 80.5394 3.60468H80.7429V5.06952H80.7623C81.2662 4.39045 82.2063 3.70169 83.2141 3.70169C84.3189 3.70169 85.0457 4.33225 85.0457 5.90381V8.16414C85.0457 9.30885 85.1039 9.60958 85.7338 9.60958V9.84241H82.5842V9.61928H82.5939Z" fill="white"/>
<path d="M89.4746 12.9078C87.9434 12.9078 86.6642 12.4422 86.6642 11.5012C86.6642 10.8706 87.2263 10.3759 88.2244 10.1818C87.4782 10.0751 86.9161 9.69679 86.9161 9.06623C86.9161 8.44536 87.4685 8.01852 88.4473 7.8245C87.4976 7.52377 86.9937 6.8447 86.9937 5.99101C86.9937 4.74929 88.05 3.80829 89.8525 3.80829C91.5582 3.80829 91.9943 3.00311 92.566 3.00311C92.8761 3.00311 93.0603 3.19713 93.0603 3.49786C93.0603 3.78889 92.8664 4.06052 92.3625 4.06052C91.878 4.06052 91.3643 3.99261 90.9089 3.94411L90.8895 3.99261C91.5678 4.20604 92.566 4.72989 92.566 5.94251C92.566 7.15513 91.5485 8.00882 89.8138 8.00882C89.4843 8.00882 89.1935 7.98942 88.9416 7.94091C88.4376 8.00882 88.1469 8.15433 88.1469 8.41626C88.1469 8.64908 88.3795 8.7849 89.0191 8.7946L90.6569 8.8334C92.2656 8.87221 93.1184 9.37666 93.1184 10.4632C93.1184 11.8116 91.8101 12.9078 89.4746 12.9078ZM89.901 12.6459C91.2674 12.6459 92.1008 11.9959 92.1008 11.2392C92.1008 10.7542 91.7714 10.3371 90.5794 10.2983L89.4746 10.2594C89.1839 10.2497 88.8931 10.24 88.6508 10.2109C88.2051 10.4632 87.9434 10.8415 87.9434 11.3266C87.9434 12.1123 88.6315 12.6459 89.901 12.6459ZM89.7653 7.8051C90.3177 7.8051 90.7829 7.32005 90.7829 5.91341C90.7829 4.51647 90.3662 4.02172 89.7847 4.02172C89.1645 4.02172 88.7865 4.54557 88.7865 5.94251C88.7865 7.35885 89.2129 7.8051 89.7653 7.8051Z" fill="white"/>
<path d="M48.9758 15.0517C48.5203 14.0719 48.3071 13.6838 47.9194 13.6838V13.451H51.8249V13.6838C50.8364 13.6838 50.7977 14.2756 51.1465 15.0517L53.0072 19.0873L54.4512 15.3815C54.8776 14.3047 54.7419 13.6838 53.5887 13.6838V13.451H56.0502V13.6838C55.4494 13.6838 55.1877 14.3047 54.771 15.3912L52.2998 21.6871H52.0672L48.9758 15.0517Z" fill="white"/>
<path d="M59.1707 21.6969C57.2325 21.6969 55.8467 20.5037 55.8467 18.5732C55.8467 16.5069 57.436 15.3525 59.3354 15.3525C61.2737 15.3525 62.6498 16.5457 62.6498 18.4665C62.6498 20.5328 61.0508 21.6969 59.1707 21.6969ZM59.2773 21.4544C60.198 21.4544 60.7116 20.4261 60.7116 18.6411C60.7116 16.5069 60.0914 15.5853 59.2192 15.5853C58.2985 15.5853 57.7946 16.6136 57.7946 18.3986C57.7946 20.5328 58.4148 21.4544 59.2773 21.4544Z" fill="white"/>
<path d="M63.5705 21.2602C64.181 21.2602 64.2585 20.9595 64.2585 19.8342V16.468H63.5802V16.2448C64.4427 16.2448 65.5281 15.8859 65.906 15.2456H66.1095V19.8342C66.1095 20.9595 66.158 21.2602 66.7976 21.2602V21.4931H63.5608V21.2602H63.5705ZM65.1017 14.5375C64.559 14.5375 64.1132 14.1009 64.1132 13.5383C64.1132 12.9756 64.559 12.5197 65.1017 12.5197C65.6444 12.5197 66.0901 12.9756 66.0901 13.5383C66.0901 14.1009 65.6444 14.5375 65.1017 14.5375Z" fill="white"/>
<path d="M69.8406 21.6969C68.8521 21.6969 68.2028 21.1924 68.2028 19.941V15.789H67.5729V15.5659C68.8424 15.5076 69.4917 14.8868 69.8697 13.7518H70.0635V15.5562H71.5462V15.789H70.0635V20.1059C70.0635 20.7462 70.3639 21.0275 70.6934 21.0275C71.052 21.0275 71.3136 20.7268 71.5753 20.3193L71.7497 20.426C71.3233 21.2312 70.7709 21.6969 69.8406 21.6969Z" fill="white"/>
<path d="M72.3311 21.2602C72.9416 21.2602 73.0192 20.9595 73.0192 19.8342V16.468H72.3408V16.2448C73.2033 16.2448 74.2887 15.8859 74.6666 15.2456H74.8702V19.8342C74.8702 20.9595 74.9186 21.2602 75.5582 21.2602V21.4931H72.3214V21.2602H72.3311ZM73.872 14.5375C73.3293 14.5375 72.8835 14.1009 72.8835 13.5383C72.8835 12.9756 73.3293 12.5197 73.872 12.5197C74.4147 12.5197 74.8605 12.9756 74.8605 13.5383C74.8508 14.1009 74.405 14.5375 73.872 14.5375Z" fill="white"/>
<path d="M76.8181 21.6871L76.6436 19.6887L76.8568 19.6693C77.1572 20.8625 77.8841 21.4445 78.795 21.4445C79.4928 21.4445 80.0064 21.105 80.0064 20.523C80.0064 19.8827 79.3086 19.5141 78.3686 19.126C77.5061 18.7671 76.5564 18.2723 76.5564 17.1567C76.5564 15.9538 77.6321 15.3523 78.9404 15.3523C79.7641 15.3523 80.1518 15.5949 80.4231 15.5949C80.5588 15.5949 80.6654 15.5269 80.6266 15.3232L80.8108 15.2844L81.2275 17.2149L80.9755 17.2828C80.4813 16.0896 79.8707 15.6046 79.1148 15.6046C78.4752 15.6046 78.1263 15.9344 78.1263 16.3709C78.1263 16.9142 78.6884 17.2343 79.6866 17.6709C80.6848 18.1074 81.5085 18.6701 81.5085 19.7178C81.5085 21.0274 80.2487 21.7065 78.9307 21.7065C78.0294 21.7065 77.6321 21.3863 77.2929 21.3863C77.0894 21.3863 76.9925 21.5028 77.0022 21.6774L76.8181 21.6871Z" fill="white"/>
<path d="M82.3031 21.2603C82.9234 21.2603 83.0009 20.9596 83.0009 19.8343V13.3055H82.3128V13.0727C83.185 13.0727 84.2704 12.7138 84.6484 12.0735H84.8519V16.6718C85.3558 15.9927 86.2765 15.3427 87.2843 15.3427C88.3891 15.3427 89.1063 15.9733 89.1063 17.5448V19.8052C89.1063 20.9499 89.1741 21.2506 89.7943 21.2506V21.4834H86.6544V21.2506C87.1487 21.2506 87.2553 20.9208 87.2553 19.8052V17.5448C87.2553 16.6621 86.8676 16.3031 86.2765 16.3031C85.7047 16.3031 85.2105 16.6135 84.8519 17.0307V19.8343C84.8519 20.9596 84.91 21.2603 85.5012 21.2603V21.4931H82.2935V21.2603H82.3031Z" fill="white"/>
<path d="M90.5018 21.2603C91.122 21.2603 91.1996 20.9596 91.1996 19.8343V12.6556L90.4824 12.7623V12.6459C91.3546 12.6459 92.4691 11.9086 92.847 11.2683L93.0505 10.9482V18.5052L95.0953 16.7591C95.7834 16.1479 95.5896 15.7696 94.7368 15.7696V15.5561H97.5084V15.7696C96.8397 15.7696 96.3552 16.0024 95.6284 16.633L94.7949 17.3411L96.8204 20.3484C97.208 20.9499 97.4406 21.2506 97.867 21.2506V21.4834H95.3086C95.076 21.0954 94.8143 20.688 94.5042 20.232L93.3607 18.5538L93.0505 18.8157V19.8343C93.0505 20.9596 93.1087 21.2603 93.7386 21.2603V21.4932H90.4921V21.2603H90.5018Z" fill="white"/>
<path d="M98.5842 21.2602C99.1947 21.2602 99.2722 20.9595 99.2722 19.8342V16.468H98.5938V16.2448C99.4563 16.2448 100.542 15.8859 100.92 15.2456H101.123V19.8342C101.123 20.9595 101.172 21.2602 101.811 21.2602V21.4931H98.5745V21.2602H98.5842ZM100.115 14.5375C99.5726 14.5375 99.1268 14.1009 99.1268 13.5383C99.1268 12.9756 99.5726 12.5197 100.115 12.5197C100.658 12.5197 101.104 12.9756 101.104 13.5383C101.104 14.1009 100.658 14.5375 100.115 14.5375Z" fill="white"/>
<path d="M107.064 21.2603C107.568 21.2603 107.674 20.9304 107.674 19.8148V17.5545C107.674 16.6717 107.287 16.3128 106.686 16.3128C106.095 16.3128 105.571 16.6523 105.222 17.0889V19.8342C105.222 20.9595 105.29 21.2603 105.872 21.2603V21.4931H102.674V21.2603C103.284 21.2603 103.362 20.9595 103.362 19.8342V16.468H102.683V16.2449C103.546 16.2449 104.631 15.8859 105.009 15.2457H105.213V16.7105H105.232C105.736 16.0314 106.676 15.3427 107.684 15.3427C108.789 15.3427 109.516 15.9732 109.516 17.5448V19.8051C109.516 20.9498 109.574 21.2506 110.204 21.2506V21.4834H107.054V21.2603H107.064Z" fill="white"/>
<path d="M54.6741 33.1732C53.9376 33.1732 53.424 32.6299 53.424 31.0487C53.424 30.9323 53.424 30.8061 53.4337 30.68C52.9394 31.98 52.0673 33.1732 50.4973 33.1732C49.1406 33.1732 48.1327 32.1934 48.1327 30.9032C48.1327 29.5741 49.1503 28.6331 50.6911 28.1578C50.0418 27.4884 49.7705 26.9646 49.7705 26.4019C49.7705 25.393 50.7008 24.7236 52.0866 24.7236C53.3658 24.7236 54.2187 25.2281 54.2187 25.8295C54.2187 26.1497 53.9667 26.4407 53.55 26.4407C52.6293 26.4407 52.5615 24.9565 51.7474 24.9565C51.3017 24.9565 50.9915 25.3445 50.9915 25.8392C50.9915 26.5474 51.5924 27.178 53.1139 28.3615L53.7147 28.8466C54.0151 27.7697 54.5191 26.887 55.149 26.887C55.4785 26.887 55.7692 27.0907 55.7692 27.469C55.7692 27.8279 55.5076 28.0705 54.897 28.3615C54.5094 28.5555 54.2477 28.8077 54.0442 29.1182C55.5948 30.4569 55.963 31.2136 55.963 31.8733C55.963 32.7172 55.3234 33.1732 54.6741 33.1732ZM49.7414 30.4472C49.7414 31.524 50.2938 32.1352 51.1466 32.1352C52.1738 32.1352 52.8328 31.3397 53.3271 30.3696L52.1254 29.4189C51.6118 29.0212 51.1951 28.6622 50.8656 28.3421C50.1194 28.866 49.7414 29.5741 49.7414 30.4472ZM53.676 30.9323C53.676 32.4941 54.1508 32.9016 54.5966 32.9016C54.9164 32.9016 55.0812 32.6978 55.0812 32.3971C55.0812 31.9509 54.7032 31.5046 53.6856 30.6509V30.9323H53.676Z" fill="white"/>
<path d="M56.8739 32.7367C57.5038 32.7367 57.8042 32.5523 57.8042 31.4658V26.431C57.8042 25.3154 57.5426 25.1602 56.8739 25.1602V24.9274H60.4111C62.737 24.9274 63.7933 25.8199 63.7933 27.275C63.7933 29.157 62.0295 29.7488 60.6631 29.7488C60.3433 29.7488 60.0138 29.71 59.7618 29.6614V31.33C59.7618 32.4747 60.0913 32.727 60.8182 32.727V32.9598H56.8739V32.7367ZM60.4402 29.4868C61.3318 29.4868 61.7679 28.4779 61.7679 27.3138C61.7679 25.9266 61.1864 25.199 60.4693 25.199C59.8878 25.199 59.7618 25.4706 59.7618 26.2661V29.3219C60.0041 29.4383 60.2076 29.4868 60.4402 29.4868Z" fill="white"/>
<path d="M66.1482 33.1731C65.2179 33.1731 64.6461 32.6105 64.6461 31.7762C64.6461 30.321 66.3905 29.7099 68.1543 29.4091V28.5263C68.1543 27.4495 67.9508 27.0615 67.505 27.0615C66.6037 27.0615 66.5165 28.9241 65.4989 28.9241C65.1307 28.9241 64.8787 28.6913 64.8787 28.3032C64.8787 27.4495 66.0804 26.8384 67.6213 26.8384C69.2397 26.8384 70.0149 27.4883 70.0149 29.0114V31.6404C70.0149 32.106 70.1409 32.3097 70.3735 32.3097C70.4995 32.3097 70.6158 32.2515 70.7418 32.1254L70.8871 32.2612C70.5092 32.7657 69.9956 33.1925 69.3075 33.1925C68.6291 33.1925 68.1833 32.7754 68.1833 32.0866V32.0478H68.1252C67.5922 32.7657 66.9332 33.1731 66.1482 33.1731ZM67.2336 32.1545C67.5243 32.1545 67.8248 32.0284 68.1543 31.6404V29.6517C67.2239 29.8263 66.4777 30.4277 66.4777 31.2717C66.4777 31.8247 66.7781 32.1545 67.2336 32.1545Z" fill="white"/>
<path d="M71.585 32.7366C72.1955 32.7366 72.273 32.4165 72.273 31.2911V27.954H71.5946V27.7212C72.4475 27.7212 73.5425 27.3622 73.9205 26.722H74.124V28.4973H74.1434C74.531 27.5175 75.1319 26.8093 75.8587 26.8093C76.3529 26.8093 76.6921 27.1391 76.6921 27.7503C76.6921 28.3711 76.3239 28.6234 75.9847 28.6234C75.5001 28.6234 75.2385 28.1286 74.909 28.1286C74.5504 28.1286 74.2984 28.507 74.1143 29.1181V31.2911C74.1143 32.4165 74.2403 32.7366 74.8121 32.7366H74.9865V32.9694H71.585V32.7366Z" fill="white"/>
<path d="M79.6284 33.1733C78.6399 33.1733 77.9906 32.6688 77.9906 31.4174V27.2654H77.3607V27.0519C78.6302 26.9937 79.2795 26.3729 79.6575 25.2379H79.8513V27.0422H81.334V27.2751H79.8513V31.5726C79.8513 32.2129 80.1517 32.4942 80.4812 32.4942C80.8398 32.4942 81.1015 32.1935 81.3631 31.786L81.5376 31.8927C81.1015 32.7076 80.5588 33.1733 79.6284 33.1733Z" fill="white"/>
<path d="M86.451 32.7365C86.9549 32.7365 87.0615 32.4067 87.0615 31.2911V29.0308C87.0615 28.148 86.6738 27.789 86.073 27.789C85.4722 27.789 84.9585 28.1286 84.6097 28.5651V31.3105C84.6097 32.4358 84.6775 32.7365 85.259 32.7365V32.9694H82.0609V32.7365C82.6714 32.7365 82.749 32.4358 82.749 31.3105V27.9442H82.0706V27.7114C82.9331 27.7114 84.0185 27.3525 84.3965 26.7122H84.6V28.1771H84.6193C85.1233 27.498 86.0633 26.8092 87.0712 26.8092C88.176 26.8092 88.9028 27.4398 88.9028 29.0114V31.2717C88.9028 32.4164 88.9609 32.7171 89.5908 32.7171V32.95H86.4413V32.7365H86.451Z" fill="white"/>
<path d="M93.3412 33.1731C91.5871 33.1731 90.3176 32.0477 90.3176 30.1658C90.3176 28.0412 91.9263 26.8286 93.6416 26.8286C95.1244 26.8286 96.0935 27.7308 96.0935 28.7785C96.0935 29.1471 95.8997 29.2927 95.3182 29.2927H92.188V29.4964C92.188 31.1552 92.9827 32.2127 94.2425 32.2127C95.0662 32.2127 95.6961 31.7567 96.2485 30.8351L96.423 30.9515C95.7349 32.3679 94.824 33.1731 93.3412 33.1731ZM92.2074 29.0598H93.5738C94.1165 29.0598 94.32 28.9822 94.32 28.439C94.32 27.7017 94.0584 27.0614 93.4284 27.0614C92.6532 27.0614 92.2849 28.0509 92.2074 29.0598Z" fill="white"/>
<path d="M97.0238 32.7366C97.6344 32.7366 97.7119 32.4165 97.7119 31.2911V27.954H97.0335V27.7212C97.8863 27.7212 98.9814 27.3622 99.3594 26.722H99.5629V28.4973H99.5823C99.9699 27.5175 100.571 26.8093 101.298 26.8093C101.792 26.8093 102.131 27.1391 102.131 27.7503C102.131 28.3711 101.763 28.6234 101.424 28.6234C100.939 28.6234 100.677 28.1286 100.348 28.1286C99.9893 28.1286 99.7373 28.507 99.5532 29.1181V31.2911C99.5532 32.4165 99.6792 32.7366 100.251 32.7366H100.425V32.9694H97.0142V32.7366H97.0238Z" fill="white"/>
<path d="M103.275 33.1537L103.1 31.1553L103.313 31.1359C103.614 32.3291 104.341 32.9112 105.252 32.9112C105.949 32.9112 106.463 32.5716 106.463 31.9896C106.463 31.3493 105.765 30.9807 104.825 30.5926C103.963 30.2337 103.013 29.7389 103.013 28.6233C103.013 27.4204 104.089 26.8189 105.397 26.8189C106.221 26.8189 106.608 27.0615 106.88 27.0615C107.015 27.0615 107.122 26.9936 107.083 26.7898L107.267 26.751L107.684 28.6815L107.432 28.7494C106.938 27.5562 106.327 27.0712 105.571 27.0712C104.932 27.0712 104.583 27.401 104.583 27.8375C104.583 28.3808 105.145 28.7009 106.143 29.1375C107.141 29.574 107.965 30.1367 107.965 31.1844C107.965 32.494 106.705 33.1731 105.387 33.1731C104.486 33.1731 104.089 32.853 103.749 32.853C103.546 32.853 103.449 32.9694 103.459 33.144L103.275 33.1537Z" fill="white"/>
</svg>
