<svg width="167" height="50" viewBox="0 0 167 50" fill="none" xmlns="http://www.w3.org/2000/svg">
<path fill-rule="evenodd" clip-rule="evenodd" d="M0.47818 2.24756H9.32839V25.737H0.47818V2.24756ZM29.5428 49.2117L18.1492 2.24756H9.31369L20.6631 49.2117H29.5428ZM29.5428 49.2117H38.4077L49.7571 2.24756H40.9216L29.5428 49.2117ZM58.6073 25.737H49.7571V49.2264H58.6073V25.737Z" fill="white"/>
<path d="M72.2649 13.8231C73.0588 13.8231 73.4263 13.6321 73.4263 11.7518V4.14231C73.4263 2.51171 72.9559 2.35012 72.2649 2.35012V1.99756H76.1461L79.8949 9.88612L83.5702 1.99756H87.4661V2.35012C86.5987 2.35012 86.3047 2.62923 86.3047 4.43611V11.928C86.3047 13.6762 86.6281 13.8231 87.4661 13.8231V14.1756H82.1442V13.8231C82.9234 13.8231 83.3056 13.7202 83.3056 11.9134V3.83382L78.7776 13.6174H78.4542L73.9262 4.0101V11.7077C73.9262 13.6321 74.2937 13.8231 75.0876 13.8231V14.1756H72.2502V13.8231H72.2649Z" fill="white"/>
<path d="M93.3319 14.4843C90.671 14.4843 88.7451 12.7802 88.7451 9.93034C88.7451 6.71321 91.1855 4.87695 93.7877 4.87695C96.037 4.87695 97.5071 6.24313 97.5071 7.82966C97.5071 8.38788 97.2131 8.60823 96.331 8.60823H91.5825V8.91672C91.5825 11.4287 92.788 13.0299 94.6992 13.0299C95.9488 13.0299 96.9044 12.3395 97.7423 10.944L98.007 11.1202C96.9632 13.265 95.5812 14.4843 93.3319 14.4843ZM91.6119 8.25567H93.6848C94.508 8.25567 94.8168 8.13815 94.8168 7.3155C94.8168 6.19906 94.4198 5.22952 93.4642 5.22952C92.2881 5.24421 91.7295 6.7279 91.6119 8.25567Z" fill="white"/>
<path d="M98.8596 13.8233C99.8005 13.8233 99.9181 13.368 99.9181 11.6639V1.83626H98.8743V1.51307C100.197 1.51307 101.844 0.969544 102.417 0H102.726V11.6639C102.726 13.368 102.814 13.8233 103.77 13.8233V14.1759H98.8449V13.8233H98.8596Z" fill="white"/>
<path d="M105.181 13.8233C106.122 13.8233 106.24 13.368 106.24 11.6639V1.83626H105.196V1.51307C106.519 1.51307 108.166 0.969544 108.739 0H109.048V11.6639C109.048 13.368 109.136 13.8233 110.091 13.8233V14.1759H105.167V13.8233H105.181Z" fill="white"/>
<path d="M111.547 13.8236C112.473 13.8236 112.591 13.3682 112.591 11.6642V6.56674H111.562V6.22887C112.87 6.22887 114.517 5.68534 115.09 4.7158H115.399V11.6642C115.399 13.3682 115.472 13.8236 116.442 13.8236V14.1762H111.532V13.8236H111.547ZM113.884 3.64342C113.061 3.64342 112.385 2.98237 112.385 2.13035C112.385 1.27832 113.061 0.587891 113.884 0.587891C114.708 0.587891 115.384 1.27832 115.384 2.13035C115.384 2.98237 114.693 3.64342 113.884 3.64342Z" fill="white"/>
<path d="M124.602 13.8237C125.366 13.8237 125.528 13.3242 125.528 11.6348V8.21205C125.528 6.87526 124.94 6.33173 124.028 6.33173C123.132 6.33173 122.338 6.84588 121.808 7.50693V11.6642C121.808 13.3683 121.911 13.8237 122.793 13.8237V14.1762H117.942V13.8237C118.868 13.8237 118.986 13.3683 118.986 11.6642V6.56676H117.957V6.22889C119.265 6.22889 120.912 5.68536 121.485 4.71582H121.794V6.93402H121.823C122.588 5.90571 124.014 4.86272 125.543 4.86272C127.219 4.86272 128.321 5.81757 128.321 8.19736V11.6201C128.321 13.3536 128.409 13.809 129.365 13.809V14.1615H124.587V13.8237H124.602Z" fill="white"/>
<path d="M135.04 18.8032C132.717 18.8032 130.776 18.0981 130.776 16.6732C130.776 15.7183 131.629 14.9691 133.143 14.6753C132.011 14.5137 131.159 13.9408 131.159 12.986C131.159 12.0458 131.996 11.3994 133.481 11.1056C132.041 10.6503 131.276 9.62195 131.276 8.32922C131.276 6.4489 132.879 5.02396 135.613 5.02396C138.2 5.02396 138.862 3.80469 139.729 3.80469C140.2 3.80469 140.479 4.09849 140.479 4.55388C140.479 4.99458 140.185 5.4059 139.421 5.4059C138.686 5.4059 137.906 5.30308 137.215 5.22963L137.186 5.30308C138.215 5.62626 139.729 6.41952 139.729 8.25577C139.729 10.092 138.186 11.3848 135.554 11.3848C135.054 11.3848 134.613 11.3554 134.231 11.2819C133.467 11.3848 133.026 11.6051 133.026 12.0017C133.026 12.3543 133.378 12.56 134.349 12.5747L136.833 12.6334C139.274 12.6922 140.567 13.4561 140.567 15.1013C140.567 17.1433 138.583 18.8032 135.04 18.8032ZM135.687 18.4066C137.759 18.4066 139.024 17.4224 139.024 16.2765C139.024 15.542 138.524 14.9104 136.716 14.8516L135.04 14.7929C134.599 14.7782 134.158 14.7635 133.79 14.7194C133.114 15.1013 132.717 15.6743 132.717 16.4088C132.717 17.5987 133.761 18.4066 135.687 18.4066ZM135.481 11.0763C136.319 11.0763 137.024 10.3418 137.024 8.21171C137.024 6.09634 136.392 5.34714 135.51 5.34714C134.569 5.34714 133.996 6.14041 133.996 8.25577C133.996 10.4005 134.643 11.0763 135.481 11.0763Z" fill="white"/>
<path d="M73.6027 22.0498C72.9118 20.5661 72.5883 19.9785 72.0003 19.9785V19.626H77.9249V19.9785C76.4254 19.9785 76.3666 20.8746 76.8958 22.0498L79.7185 28.1609L81.909 22.5493C82.5559 20.9187 82.35 19.9785 80.6006 19.9785V19.626H84.3347V19.9785C83.4232 19.9785 83.0263 20.9187 82.3941 22.564L78.6453 32.0978H78.2925L73.6027 22.0498Z" fill="white"/>
<path d="M89.0685 32.1127C86.1283 32.1127 84.026 30.3058 84.026 27.3825C84.026 24.2535 86.437 22.5054 89.3185 22.5054C92.2587 22.5054 94.3463 24.3122 94.3463 27.2209C94.3463 30.3499 91.9206 32.1127 89.0685 32.1127ZM89.2303 31.7454C90.6269 31.7454 91.4061 30.1883 91.4061 27.4853C91.4061 24.2535 90.4652 22.8579 89.142 22.8579C87.7454 22.8579 86.9809 24.4151 86.9809 27.1181C86.9809 30.3499 87.9218 31.7454 89.2303 31.7454Z" fill="white"/>
<path d="M95.743 31.4511C96.6691 31.4511 96.7868 30.9957 96.7868 29.2916V24.1942H95.7577V23.8563C97.0661 23.8563 98.7126 23.3128 99.286 22.3432H99.5947V29.2916C99.5947 30.9957 99.6682 31.4511 100.639 31.4511V31.8036H95.7283V31.4511H95.743ZM98.0658 21.2709C97.2425 21.2709 96.5662 20.6098 96.5662 19.7578C96.5662 18.9058 97.2425 18.2153 98.0658 18.2153C98.889 18.2153 99.5653 18.9058 99.5653 19.7578C99.5653 20.6098 98.889 21.2709 98.0658 21.2709Z" fill="white"/>
<path d="M105.255 32.1127C103.755 32.1127 102.77 31.3488 102.77 29.4538V23.1665H101.815V22.8286C103.74 22.7404 104.725 21.8003 105.299 20.0815H105.593V22.8139H107.842V23.1665H105.593V29.7035C105.593 30.6731 106.049 31.0991 106.548 31.0991C107.092 31.0991 107.489 30.6437 107.886 30.0267L108.151 30.1883C107.504 31.4076 106.666 32.1127 105.255 32.1127Z" fill="white"/>
<path d="M109.033 31.4511C109.959 31.4511 110.077 30.9957 110.077 29.2916V24.1942H109.048V23.8563C110.356 23.8563 112.003 23.3128 112.576 22.3432H112.885V29.2916C112.885 30.9957 112.958 31.4511 113.929 31.4511V31.8036H109.018V31.4511H109.033ZM111.371 21.2709C110.547 21.2709 109.871 20.6098 109.871 19.7578C109.871 18.9058 110.547 18.2153 111.371 18.2153C112.194 18.2153 112.87 18.9058 112.87 19.7578C112.855 20.6098 112.179 21.2709 111.371 21.2709Z" fill="white"/>
<path d="M115.84 32.0978L115.575 29.0716L115.899 29.0422C116.354 30.8491 117.457 31.7305 118.839 31.7305C119.897 31.7305 120.676 31.2164 120.676 30.335C120.676 29.3654 119.618 28.8072 118.192 28.2196C116.884 27.6761 115.443 26.9269 115.443 25.2375C115.443 23.416 117.075 22.5052 119.059 22.5052C120.309 22.5052 120.897 22.8724 121.309 22.8724C121.514 22.8724 121.676 22.7696 121.617 22.4611L121.897 22.4023L122.529 25.3257L122.147 25.4285C121.397 23.6216 120.471 22.8871 119.324 22.8871C118.354 22.8871 117.824 23.3866 117.824 24.0476C117.824 24.8703 118.677 25.355 120.191 26.0161C121.706 26.6772 122.955 27.5292 122.955 29.1157C122.955 31.0989 121.044 32.1272 119.045 32.1272C117.677 32.1272 117.075 31.6424 116.56 31.6424C116.251 31.6424 116.104 31.8187 116.119 32.0831L115.84 32.0978Z" fill="white"/>
<path d="M124.161 31.4515C125.102 31.4515 125.219 30.9961 125.219 29.2921V19.4057H124.175V19.0531C125.499 19.0531 127.145 18.5096 127.718 17.54H128.027V24.5031C128.792 23.4748 130.188 22.4906 131.717 22.4906C133.393 22.4906 134.481 23.4454 134.481 25.8252V29.248C134.481 30.9814 134.584 31.4368 135.525 31.4368V31.7894H130.762V31.4368C131.511 31.4368 131.673 30.9374 131.673 29.248V25.8252C131.673 24.4884 131.085 23.9449 130.188 23.9449C129.321 23.9449 128.571 24.415 128.027 25.0467V29.2921C128.027 30.9961 128.115 31.4515 129.012 31.4515V31.8041H124.146V31.4515H124.161Z" fill="white"/>
<path d="M136.598 31.4515C137.539 31.4515 137.657 30.9961 137.657 29.292V18.4214L136.569 18.583V18.4067C137.892 18.4067 139.582 17.2903 140.156 16.3207L140.464 15.8359V27.2795L143.566 24.6353C144.61 23.7098 144.316 23.1369 143.023 23.1369V22.8137H147.227V23.1369C146.213 23.1369 145.478 23.4895 144.375 24.4443L143.111 25.5167L146.183 30.0706C146.771 30.9814 147.124 31.4368 147.771 31.4368V31.7893H143.89C143.537 31.2017 143.14 30.5848 142.67 29.8943L140.935 27.3529L140.464 27.7496V29.292C140.464 30.9961 140.553 31.4515 141.508 31.4515V31.804H136.583V31.4515H136.598Z" fill="white"/>
<path d="M148.859 31.4511C149.785 31.4511 149.903 30.9957 149.903 29.2916V24.1942H148.874V23.8563C150.182 23.8563 151.829 23.3128 152.402 22.3432H152.711V29.2916C152.711 30.9957 152.784 31.4511 153.754 31.4511V31.8036H148.844V31.4511H148.859ZM151.182 21.2709C150.358 21.2709 149.682 20.6098 149.682 19.7578C149.682 18.9058 150.358 18.2153 151.182 18.2153C152.005 18.2153 152.681 18.9058 152.681 19.7578C152.681 20.6098 152.005 21.2709 151.182 21.2709Z" fill="white"/>
<path d="M161.723 31.4511C162.487 31.4511 162.649 30.9516 162.649 29.2623V25.8395C162.649 24.5027 162.061 23.9592 161.149 23.9592C160.252 23.9592 159.459 24.4733 158.929 25.1344V29.2917C158.929 30.9957 159.032 31.4511 159.914 31.4511V31.8037H155.063V31.4511C155.989 31.4511 156.107 30.9957 156.107 29.2917V24.1942H155.078V23.8563C156.386 23.8563 158.033 23.3128 158.606 22.3433H158.915V24.5615H158.944C159.709 23.5332 161.135 22.4902 162.664 22.4902C164.339 22.4902 165.442 23.445 165.442 25.8248V29.2476C165.442 30.981 165.53 31.4364 166.486 31.4364V31.789H161.708V31.4511H161.723Z" fill="white"/>
<path d="M82.2471 49.4908C81.1298 49.4908 80.3507 48.6682 80.3507 46.2737C80.3507 46.0974 80.3507 45.9065 80.3654 45.7155C79.6156 47.684 78.2925 49.4908 75.9108 49.4908C73.8527 49.4908 72.3237 48.0071 72.3237 46.0534C72.3237 44.0408 73.8674 42.6159 76.2049 41.8961C75.2199 40.8825 74.8082 40.0892 74.8082 39.2372C74.8082 37.7094 76.2196 36.6958 78.3219 36.6958C80.2624 36.6958 81.5562 37.4597 81.5562 38.3705C81.5562 38.8552 81.1739 39.2959 80.5418 39.2959C79.1451 39.2959 79.0422 37.0484 77.8073 37.0484C77.1311 37.0484 76.6606 37.636 76.6606 38.3852C76.6606 39.4575 77.5721 40.4124 79.8802 42.2046L80.7917 42.9391C81.2474 41.3085 82.0119 39.9717 82.9675 39.9717C83.4673 39.9717 83.9084 40.2802 83.9084 40.8531C83.9084 41.3966 83.5114 41.7639 82.5853 42.2046C81.9972 42.4984 81.6003 42.8803 81.2915 43.3504C83.6438 45.3776 84.2024 46.5234 84.2024 47.5224C84.2024 48.8004 83.2321 49.4908 82.2471 49.4908ZM74.7641 45.3629C74.7641 46.9935 75.6021 47.919 76.8958 47.919C78.4542 47.919 79.4539 46.7144 80.2036 45.2454L78.3807 43.8058C77.6015 43.2035 76.9693 42.66 76.4695 42.1752C75.3375 42.9685 74.7641 44.0408 74.7641 45.3629ZM80.7329 46.0974C80.7329 48.4625 81.4533 49.0795 82.1295 49.0795C82.6147 49.0795 82.8646 48.771 82.8646 48.3156C82.8646 47.6399 82.2912 46.9642 80.7476 45.6714V46.0974H80.7329Z" fill="white"/>
<path d="M85.5843 48.8299C86.5399 48.8299 86.9956 48.5508 86.9956 46.9055V39.2814C86.9956 37.592 86.5987 37.357 85.5843 37.357V37.0044H90.9503C94.4786 37.0044 96.0811 38.3559 96.0811 40.5594C96.0811 43.4093 93.4054 44.3054 91.3325 44.3054C90.8474 44.3054 90.3476 44.2466 89.9653 44.1731V46.6998C89.9653 48.4333 90.4652 48.8152 91.5678 48.8152V49.1678H85.5843V48.8299ZM90.9944 43.9087C92.3469 43.9087 93.0085 42.381 93.0085 40.6182C93.0085 38.5175 92.1264 37.4157 91.0385 37.4157C90.1564 37.4157 89.9653 37.827 89.9653 39.0316V43.659C90.3329 43.8353 90.6416 43.9087 90.9944 43.9087Z" fill="white"/>
<path d="M99.6535 49.4906C98.2422 49.4906 97.3748 48.6385 97.3748 47.3752C97.3748 45.1717 100.021 44.2462 102.697 43.7908V42.454C102.697 40.8234 102.388 40.2358 101.712 40.2358C100.344 40.2358 100.212 43.0563 98.6685 43.0563C98.1099 43.0563 97.7276 42.7037 97.7276 42.1161C97.7276 40.8234 99.5506 39.8979 101.888 39.8979C104.343 39.8979 105.519 40.8822 105.519 43.1885V47.1695C105.519 47.8747 105.71 48.1831 106.063 48.1831C106.254 48.1831 106.431 48.095 106.622 47.904L106.842 48.1097C106.269 48.8736 105.49 49.5199 104.446 49.5199C103.417 49.5199 102.741 48.8883 102.741 47.8453V47.7865H102.653C101.844 48.8736 100.844 49.4906 99.6535 49.4906ZM101.3 47.9481C101.741 47.9481 102.197 47.7571 102.697 47.1695V44.1581C101.285 44.4225 100.153 45.3333 100.153 46.6113C100.153 47.4486 100.609 47.9481 101.3 47.9481Z" fill="white"/>
<path d="M107.901 48.8295C108.827 48.8295 108.945 48.3447 108.945 46.6407V41.5873H107.916V41.2348C109.209 41.2348 110.871 40.6912 111.444 39.7217H111.753V42.41H111.782C112.37 40.9263 113.282 39.8539 114.384 39.8539C115.134 39.8539 115.649 40.3533 115.649 41.2788C115.649 42.219 115.09 42.6009 114.575 42.6009C113.84 42.6009 113.443 41.8517 112.944 41.8517C112.4 41.8517 112.017 42.4247 111.738 43.3501V46.6407C111.738 48.3447 111.929 48.8295 112.797 48.8295H113.061V49.1821H107.901V48.8295Z" fill="white"/>
<path d="M120.103 49.4911C118.604 49.4911 117.619 48.7272 117.619 46.8322V40.5448H116.663V40.2216C118.589 40.1335 119.574 39.1933 120.147 37.4746H120.441V40.207H122.691V40.5595H120.441V47.0672C120.441 48.0368 120.897 48.4628 121.397 48.4628C121.941 48.4628 122.338 48.0074 122.735 47.3904L122.999 47.552C122.338 48.786 121.514 49.4911 120.103 49.4911Z" fill="white"/>
<path d="M130.453 48.8296C131.217 48.8296 131.379 48.3301 131.379 46.6407V43.218C131.379 41.8812 130.791 41.3376 129.88 41.3376C128.968 41.3376 128.189 41.8518 127.66 42.5128V46.6701C127.66 48.3742 127.763 48.8296 128.645 48.8296V49.1821H123.793V48.8296C124.719 48.8296 124.837 48.3742 124.837 46.6701V41.5727H123.808V41.2201C125.116 41.2201 126.763 40.6766 127.336 39.707H127.645V41.9252H127.674C128.439 40.8969 129.865 39.8539 131.394 39.8539C133.07 39.8539 134.172 40.8088 134.172 43.1886V46.6114C134.172 48.3448 134.261 48.8002 135.216 48.8002V49.1527H130.438V48.8296H130.453Z" fill="white"/>
<path d="M140.906 49.4906C138.245 49.4906 136.319 47.7866 136.319 44.9367C136.319 41.7196 138.759 39.8833 141.361 39.8833C143.611 39.8833 145.081 41.2495 145.081 42.836C145.081 43.3942 144.787 43.6146 143.905 43.6146H139.156V43.9231C139.156 46.4351 140.362 48.0363 142.273 48.0363C143.522 48.0363 144.478 47.3459 145.316 45.9503L145.581 46.1266C144.537 48.2713 143.155 49.4906 140.906 49.4906ZM139.185 43.262H141.258C142.082 43.262 142.39 43.1445 142.39 42.3219C142.39 41.2054 141.993 40.2359 141.038 40.2359C139.862 40.2359 139.303 41.7342 139.185 43.262Z" fill="white"/>
<path d="M146.492 48.8295C147.418 48.8295 147.536 48.3447 147.536 46.6407V41.5873H146.507V41.2348C147.8 41.2348 149.462 40.6912 150.035 39.7217H150.344V42.41H150.373C150.961 40.9263 151.873 39.8539 152.975 39.8539C153.725 39.8539 154.24 40.3533 154.24 41.2788C154.24 42.219 153.681 42.6009 153.166 42.6009C152.431 42.6009 152.034 41.8517 151.535 41.8517C150.991 41.8517 150.608 42.4247 150.329 43.3501V46.6407C150.329 48.3447 150.52 48.8295 151.388 48.8295H151.652V49.1821H146.477V48.8295H146.492Z" fill="white"/>
<path d="M155.974 49.4611L155.71 46.4349L156.033 46.4055C156.489 48.2124 157.592 49.0938 158.973 49.0938C160.032 49.0938 160.811 48.5797 160.811 47.6983C160.811 46.7287 159.753 46.1705 158.327 45.5829C157.018 45.0394 155.577 44.2902 155.577 42.6008C155.577 40.7792 157.209 39.8685 159.194 39.8685C160.444 39.8685 161.032 40.2357 161.443 40.2357C161.649 40.2357 161.811 40.1329 161.752 39.8244L162.031 39.7656L162.664 42.689L162.281 42.7918C161.532 40.9849 160.605 40.2504 159.459 40.2504C158.488 40.2504 157.959 40.7499 157.959 41.4109C157.959 42.2336 158.812 42.7183 160.326 43.3794C161.84 44.0404 163.09 44.8925 163.09 46.479C163.09 48.4621 161.179 49.4904 159.179 49.4904C157.812 49.4904 157.209 49.0057 156.695 49.0057C156.386 49.0057 156.239 49.182 156.254 49.4464L155.974 49.4611Z" fill="white"/>
</svg>
