<svg width="72" height="14" viewBox="0 0 72 14" fill="none" xmlns="http://www.w3.org/2000/svg">
<g clip-path="url(#clip0_35_488)">
<path d="M0.9375 0.801814H2.26339L5.11001 9.53865L8.48993 0.208008L11.6921 9.53865L14.8457 0.801814H16.172L11.6436 13.0679L8.47363 3.7373L5.0774 13.0679L0.9375 0.801814ZM23.2878 0.801814V2.02507H18.889V5.48475H23.1585V6.70801H18.889V11.2333H23.2878V12.4565H17.692V0.801814H23.2878ZM25.4874 0.801814H27.4281C28.5063 0.801814 29.3307 1.04672 29.9025 1.53569C30.5491 2.07162 30.8728 2.87552 30.8728 3.94698C30.8728 4.94881 30.5169 5.71204 29.8054 6.23623C30.4952 6.42243 31.0102 6.79817 31.3498 7.36304C31.6895 7.92791 31.8591 8.53094 31.8591 9.17172C31.8591 9.69591 31.7543 10.179 31.5439 10.6218C31.3335 11.0643 31.0723 11.4199 30.7595 11.6878C30.1555 12.2003 29.2931 12.4565 28.1717 12.4565H25.4874V0.801814ZM26.684 2.02507V5.92172H27.5895C27.7514 5.92172 27.9078 5.91291 28.0588 5.8953C28.2098 5.87768 28.3903 5.83114 28.6006 5.75565C28.8106 5.67975 28.9938 5.57785 29.1502 5.44994C29.3067 5.32162 29.4386 5.12956 29.5465 4.87333C29.6544 4.61668 29.7084 4.31978 29.7084 3.9822C29.7084 3.62114 29.6436 3.30914 29.5143 3.04704C29.3847 2.78494 29.2391 2.58994 29.0777 2.46204C28.9158 2.33372 28.7217 2.23475 28.4955 2.16472C28.2688 2.0951 28.0964 2.05401 27.9777 2.04269C27.8593 2.03094 27.7405 2.02507 27.6221 2.02507H26.684ZM26.684 7.07494V11.2333H28.0588C28.9321 11.2333 29.5628 11.0701 29.951 10.7443C30.4253 10.3715 30.6624 9.83556 30.6624 9.13649C30.6624 8.35607 30.355 7.78533 29.7406 7.42427C29.3525 7.1911 28.7435 7.07494 27.9132 7.07494H26.684ZM39.8323 2.42681L38.8782 3.10827C38.7055 2.7472 38.4955 2.45617 38.2475 2.23475C37.9238 1.96678 37.5197 1.83301 37.0345 1.83301C36.4954 1.83301 36.0588 1.99865 35.7246 2.33078C35.3904 2.66291 35.2231 3.09694 35.2231 3.63246C35.2231 4.02875 35.3578 4.36633 35.6275 4.64604C35.8429 4.8792 36.2206 5.12368 36.7593 5.37991L37.7945 5.8693C38.5599 6.23036 39.1154 6.5973 39.4604 6.9701C39.9778 7.5291 40.2367 8.23362 40.2367 9.08407C40.2367 10.1442 39.913 11.0064 39.2663 11.6702C38.6193 12.3341 37.8054 12.6662 36.8242 12.6662C35.8538 12.6662 35.0721 12.3517 34.479 11.7227C33.9939 11.2102 33.6597 10.5229 33.4765 9.66068L34.6409 9.31136C34.7162 9.89385 34.932 10.3887 35.2879 10.7967C35.6865 11.2274 36.2043 11.4429 36.8405 11.4429C37.5306 11.4429 38.0639 11.219 38.4415 10.7703C38.8188 10.322 39.0075 9.77727 39.0075 9.13649C39.0075 8.57749 38.8297 8.12333 38.4738 7.77359C38.2688 7.56391 37.8376 7.29594 37.1801 6.9701L36.2097 6.48072C35.5518 6.15446 35.0721 5.83407 34.7701 5.51956C34.2745 5.0071 34.0265 4.3722 34.0265 3.61527C34.0265 2.71827 34.3094 1.9932 34.8753 1.43965C35.4412 0.886524 36.1667 0.60975 37.0505 0.60975C37.7192 0.60975 38.296 0.784621 38.7812 1.13394C39.2233 1.44846 39.5734 1.87956 39.8323 2.42681ZM43.6329 0.801814V5.53717H49.1639V0.801814H50.3606V12.4565H49.1639V6.76043H43.6329V12.4565H42.4359V0.801814H43.6329ZM62.1585 10.9364C61.0748 12.0896 59.7462 12.6662 58.1719 12.6662C56.598 12.6662 55.269 12.0896 54.1853 10.9364C53.102 9.78314 52.5601 8.3502 52.5601 6.63798C52.5601 4.91401 53.1047 3.47814 54.1934 2.33078C55.2826 1.18343 56.6084 0.60975 58.1719 0.60975C59.7353 0.60975 61.0616 1.18343 62.1503 2.33078C63.2394 3.47814 63.7836 4.91401 63.7836 6.63798C63.7836 8.3502 63.2421 9.78314 62.1585 10.9364ZM61.277 3.23072C60.4254 2.29891 59.3902 1.83301 58.1719 1.83301C56.9535 1.83301 55.9187 2.29891 55.0668 3.23072C54.2152 4.16252 53.789 5.29856 53.789 6.63798C53.789 7.97739 54.2152 9.11343 55.0668 10.0452C55.9187 10.977 56.9535 11.4429 58.1719 11.4429C59.3902 11.4429 60.4254 10.977 61.277 10.0452C62.129 9.11343 62.5548 7.97739 62.5548 6.63798C62.5548 5.29856 62.129 4.16252 61.277 3.23072ZM65.9832 0.801814H67.9402C69.1691 0.801814 70.075 1.07565 70.6572 1.62333C71.3147 2.22888 71.6434 3.06172 71.6434 4.12185C71.6434 5.03059 71.3605 5.8022 70.7946 6.4371C70.2287 7.07201 69.374 7.38946 68.2313 7.38946H67.1798V12.4565H65.9832V0.801814ZM67.1798 2.02507V6.1662H68.1665C68.8779 6.1662 69.4361 5.98001 69.8405 5.6072C70.2446 5.23439 70.4468 4.71607 70.4468 4.05181C70.4468 2.70065 69.6546 2.02507 68.0695 2.02507H67.1798Z" fill="white" fill-opacity="0.21"/>
<path d="M0.00408936 0.817439H1.33036L4.1766 9.55428L7.55652 0.223633L10.7587 9.55428L13.9123 0.817439H15.2386L10.7102 13.0836L7.54061 3.75292L4.14438 13.0836L0.00408936 0.817439ZM22.3544 0.817439V2.0407H17.9556V5.50038H22.2251V6.72363H17.9556V11.2489H22.3544V12.4721H16.7589V0.817439H22.3544ZM24.554 0.817439H26.4947C27.5729 0.817439 28.3977 1.06234 28.969 1.55131C29.6161 2.08725 29.9394 2.89115 29.9394 3.9626C29.9394 4.96444 29.5835 5.72767 28.872 6.25186C29.5621 6.43805 30.0768 6.8138 30.4164 7.37867C30.756 7.94354 30.9261 8.54657 30.9261 9.18734C30.9261 9.71154 30.8209 10.1946 30.6105 10.6375C30.4001 11.0803 30.1389 11.4355 29.8261 11.7035C29.2225 12.2159 28.3601 12.4721 27.2387 12.4721H24.554V0.817439ZM25.7506 2.0407V5.93734H26.6565C26.818 5.93734 26.9744 5.92854 27.1254 5.91092C27.2764 5.89373 27.4569 5.84676 27.6672 5.77128C27.8776 5.69538 28.0608 5.59347 28.2168 5.46557C28.3733 5.33725 28.5056 5.14518 28.6131 4.88896C28.721 4.63273 28.775 4.33541 28.775 3.99783C28.775 3.63676 28.7102 3.32518 28.5809 3.06308C28.4517 2.80057 28.3061 2.60557 28.1443 2.47767C27.9824 2.34934 27.7883 2.25038 27.562 2.18034C27.3358 2.11073 27.163 2.06963 27.0446 2.05831C26.9259 2.04657 26.8075 2.0407 26.6887 2.0407H25.7506ZM25.7506 7.09057V11.2489H27.1254C27.9987 11.2489 28.6294 11.0862 29.0176 10.7599C29.4919 10.3871 29.729 9.85118 29.729 9.15212C29.729 8.3717 29.422 7.80096 28.8072 7.43989C28.4191 7.20673 27.8101 7.09057 26.9798 7.09057H25.7506ZM38.8988 2.44244L37.9448 3.12389C37.7725 2.76283 37.5621 2.47179 37.3141 2.25037C36.9907 1.98241 36.5863 1.84863 36.1011 1.84863C35.562 1.84863 35.1253 2.01428 34.7911 2.34641C34.457 2.67854 34.2897 3.11257 34.2897 3.64808C34.2897 4.04437 34.4247 4.38196 34.6941 4.66167C34.9099 4.89483 35.2872 5.13931 35.8263 5.39554L36.8611 5.88492C37.6269 6.24599 38.1819 6.61292 38.527 6.98573C39.0444 7.54473 39.3033 8.24967 39.3033 9.0997C39.3033 10.1598 38.98 11.022 38.3329 11.6859C37.6859 12.3497 36.872 12.6818 35.8908 12.6818C34.9204 12.6818 34.1387 12.3673 33.546 11.7383C33.0608 11.2258 32.7266 10.5385 32.543 9.67631L33.7075 9.32699C33.7831 9.90947 33.9986 10.4047 34.3545 10.8123C34.7535 11.2434 35.2709 11.4586 35.9071 11.4586C36.5972 11.4586 37.1309 11.2346 37.5081 10.7859C37.8854 10.3376 38.074 9.79289 38.074 9.15212C38.074 8.59312 37.8963 8.13896 37.5403 7.78921C37.3358 7.57954 36.9042 7.31199 36.2467 6.98573L35.2763 6.49634C34.6188 6.17008 34.1387 5.8497 33.8371 5.53518C33.3411 5.02273 33.093 4.38783 33.093 3.63089C33.093 2.73389 33.376 2.00883 33.9419 1.45528C34.5082 0.902149 35.2332 0.625375 36.1174 0.625375C36.7858 0.625375 37.3626 0.800246 37.8478 1.14957C38.2898 1.46408 38.6403 1.89518 38.8988 2.44244ZM42.6995 0.817439V5.55279H48.2305V0.817439H49.4271V12.4721H48.2305V6.77605H42.6995V12.4721H41.5029V0.817439H42.6995ZM61.225 10.952C60.1418 12.1052 58.8128 12.6818 57.2385 12.6818C55.6646 12.6818 54.3356 12.1052 53.2523 10.952C52.1686 9.79876 51.6267 8.36583 51.6267 6.6536C51.6267 4.92963 52.1713 3.49376 53.26 2.34641C54.3491 1.19905 55.6754 0.625375 57.2385 0.625375C58.8019 0.625375 60.1282 1.19905 61.2169 2.34641C62.306 3.49376 62.8506 4.92963 62.8506 6.6536C62.8506 8.36583 62.3087 9.79876 61.225 10.952ZM60.3436 3.24634C59.492 2.31454 58.4568 1.84863 57.2385 1.84863C56.0201 1.84863 54.9853 2.31454 54.1333 3.24634C53.2818 4.17815 52.856 5.31418 52.856 6.6536C52.856 7.99302 53.2818 9.12905 54.1333 10.0609C54.9853 10.9927 56.0201 11.4586 57.2385 11.4586C58.4568 11.4586 59.492 10.9927 60.3436 10.0609C61.1955 9.12905 61.6213 7.99302 61.6213 6.6536C61.6213 5.31418 61.1955 4.17815 60.3436 3.24634ZM65.0498 0.817439H67.0068C68.236 0.817439 69.1416 1.09128 69.7238 1.63896C70.3817 2.2445 70.7104 3.07734 70.7104 4.13747C70.7104 5.04621 70.4275 5.81783 69.8612 6.45273C69.2953 7.08763 68.441 7.40509 67.2979 7.40509H66.2468V12.4721H65.0498V0.817439ZM66.2468 2.0407V6.18183H67.2331C67.9449 6.18183 68.5027 5.99563 68.9071 5.62283C69.3116 5.25002 69.5134 4.7317 69.5134 4.06744C69.5134 2.71628 68.7212 2.0407 67.136 2.0407H66.2468Z" fill="white"/>
</g>
<defs>
<clipPath id="clip0_35_488">
<rect width="72" height="13" fill="white" transform="translate(0 0.138184)"/>
</clipPath>
</defs>
</svg>
