<svg width="15" height="19" viewBox="0 0 15 19" fill="none" xmlns="http://www.w3.org/2000/svg">
<path fill-rule="evenodd" clip-rule="evenodd" d="M1.21065 1.62724C1.61893 1.21896 2.17268 0.989586 2.75008 0.989586H9.47925C9.63672 0.989586 9.78774 1.05214 9.89909 1.16349L14.2533 5.51766C14.3646 5.62901 14.4272 5.78003 14.4272 5.9375V15.8333C14.4272 16.4107 14.1978 16.9645 13.7895 17.3728C13.3812 17.781 12.8275 18.0104 12.2501 18.0104H2.75008C2.17268 18.0104 1.61893 17.781 1.21065 17.3728C0.802369 16.9645 0.572998 16.4107 0.572998 15.8333V3.16667C0.572998 2.58927 0.802369 2.03552 1.21065 1.62724ZM12.7958 5.73959L9.67717 2.62094V5.73959H12.7958ZM8.48967 2.17709V6.33334C8.48967 6.66126 8.7555 6.92709 9.08342 6.92709H13.2397V15.8333C13.2397 16.0958 13.1354 16.3475 12.9498 16.5331C12.7642 16.7187 12.5125 16.8229 12.2501 16.8229H2.75008C2.48763 16.8229 2.23592 16.7187 2.05034 16.5331C1.86476 16.3475 1.7605 16.0958 1.7605 15.8333V3.16667C1.7605 2.90422 1.86476 2.65251 2.05034 2.46693C2.23592 2.28135 2.48763 2.17709 2.75008 2.17709H8.48967ZM3.73967 7.125C3.73967 6.79708 4.0055 6.53125 4.33342 6.53125H5.91675C6.24467 6.53125 6.5105 6.79708 6.5105 7.125C6.5105 7.45292 6.24467 7.71875 5.91675 7.71875H4.33342C4.0055 7.71875 3.73967 7.45292 3.73967 7.125ZM3.73967 10.2917C3.73967 9.96375 4.0055 9.69792 4.33342 9.69792H10.6667C10.9947 9.69792 11.2605 9.96375 11.2605 10.2917C11.2605 10.6196 10.9947 10.8854 10.6667 10.8854H4.33342C4.0055 10.8854 3.73967 10.6196 3.73967 10.2917ZM3.73967 13.4583C3.73967 13.1304 4.0055 12.8646 4.33342 12.8646H10.6667C10.9947 12.8646 11.2605 13.1304 11.2605 13.4583C11.2605 13.7863 10.9947 14.0521 10.6667 14.0521H4.33342C4.0055 14.0521 3.73967 13.7863 3.73967 13.4583Z" fill="white"/>
</svg>
